<?xml version="1.0" encoding="UTF-8" standalone="no"?>
<!DOCTYPE svg PUBLIC "-//W3C//DTD SVG 1.1//EN"
 "http://www.w3.org/Graphics/SVG/1.1/DTD/svg11.dtd">
<!-- Generated by graphviz version 14.0.4 (20251115.1723)
 -->
<!-- Title: PULSE H2 &#45; Azure Network Architecture Pages: 1 -->
<svg width="1714pt" height="2292pt"
 viewBox="0.00 0.00 1714.00 2292.00" xmlns="http://www.w3.org/2000/svg" xmlns:xlink="http://www.w3.org/1999/xlink">
<g id="graph0" class="graph" transform="scale(1 1) rotate(0) translate(144 2147.75)">
<title>PULSE H2 &#45; Azure Network Architecture</title>
<polygon fill="white" stroke="none" points="-144,144 -144,-2147.75 1570.25,-2147.75 1570.25,144 -144,144"/>
<text xml:space="preserve" text-anchor="middle" x="713.13" y="-5.5" font-family="Sans-Serif" font-size="15.00" fill="#2d3436">PULSE H2 &#45; Azure Network Architecture</text>
<g id="clust1" class="cluster">
<title>cluster_Resource Group: rg&#45;PULSE&#45;training&#45;&lt;env&gt;</title>
<path fill="#e5f5fd" stroke="#aeb6be" d="M20,-31.75C20,-31.75 1406.25,-31.75 1406.25,-31.75 1412.25,-31.75 1418.25,-37.75 1418.25,-43.75 1418.25,-43.75 1418.25,-1983.75 1418.25,-1983.75 1418.25,-1989.75 1412.25,-1995.75 1406.25,-1995.75 1406.25,-1995.75 20,-1995.75 20,-1995.75 14,-1995.75 8,-1989.75 8,-1983.75 8,-1983.75 8,-43.75 8,-43.75 8,-37.75 14,-31.75 20,-31.75"/>
<text xml:space="preserve" text-anchor="middle" x="130.38" y="-1980.35" font-family="Sans-Serif" font-size="12.00" fill="#2d3436">Resource Group: rg&#45;PULSE&#45;training&#45;&lt;env&gt;</text>
</g>
<g id="clust2" class="cluster">
<title>cluster_Virtual Network: vnet&#45;PULSE&#45;training&#45;&lt;env&gt; (10.10.0.0/16)</title>
<path fill="#ebf3e7" stroke="#aeb6be" d="M28,-58.75C28,-58.75 897.68,-58.75 897.68,-58.75 903.68,-58.75 909.68,-64.75 909.68,-70.75 909.68,-70.75 909.68,-1217.75 909.68,-1217.75 909.68,-1223.75 903.68,-1229.75 897.68,-1229.75 897.68,-1229.75 28,-1229.75 28,-1229.75 22,-1229.75 16,-1223.75 16,-1217.75 16,-1217.75 16,-70.75 16,-70.75 16,-64.75 22,-58.75 28,-58.75"/>
<text xml:space="preserve" text-anchor="middle" x="179.25" y="-1214.35" font-family="Sans-Serif" font-size="12.00" fill="#2d3436">Virtual Network: vnet&#45;PULSE&#45;training&#45;&lt;env&gt; (10.10.0.0/16)</text>
</g>
<g id="clust3" class="cluster">
<title>cluster_App Subnet: PULSE&#45;app&#45;subnet (10.10.1.0/24)</title>
<path fill="#ece8f6" stroke="#aeb6be" d="M36,-66.75C36,-66.75 520.9,-66.75 520.9,-66.75 526.9,-66.75 532.9,-72.75 532.9,-78.75 532.9,-78.75 532.9,-436.75 532.9,-436.75 532.9,-442.75 526.9,-448.75 520.9,-448.75 520.9,-448.75 36,-448.75 36,-448.75 30,-448.75 24,-442.75 24,-436.75 24,-436.75 24,-78.75 24,-78.75 24,-72.75 30,-66.75 36,-66.75"/>
<text xml:space="preserve" text-anchor="middle" x="156.88" y="-433.35" font-family="Sans-Serif" font-size="12.00" fill="#2d3436">App Subnet: PULSE&#45;app&#45;subnet (10.10.1.0/24)</text>
</g>
<g id="clust4" class="cluster">
<title>cluster_Private Endpoints Subnet: PULSE&#45;private&#45;endpoints&#45;subnet (10.10.2.0/24)</title>
<path fill="#ece8f6" stroke="#aeb6be" d="M428.1,-456.75C428.1,-456.75 889.68,-456.75 889.68,-456.75 895.68,-456.75 901.68,-462.75 901.68,-468.75 901.68,-468.75 901.68,-977.75 901.68,-977.75 901.68,-983.75 895.68,-989.75 889.68,-989.75 889.68,-989.75 428.1,-989.75 428.1,-989.75 422.1,-989.75 416.1,-983.75 416.1,-977.75 416.1,-977.75 416.1,-468.75 416.1,-468.75 416.1,-462.75 422.1,-456.75 428.1,-456.75"/>
<text xml:space="preserve" text-anchor="middle" x="621.35" y="-974.35" font-family="Sans-Serif" font-size="12.00" fill="#2d3436">Private Endpoints Subnet: PULSE&#45;private&#45;endpoints&#45;subnet (10.10.2.0/24)</text>
</g>
<g id="clust5" class="cluster">
<title>cluster_Analytics Subnet: PULSE&#45;analytics&#45;pg&#45;subnet (10.10.3.0/24)</title>
<path fill="#ece8f6" stroke="#aeb6be" d="M428.1,-997.75C428.1,-997.75 889.68,-997.75 889.68,-997.75 895.68,-997.75 901.68,-1003.75 901.68,-1009.75 901.68,-1009.75 901.68,-1188.75 901.68,-1188.75 901.68,-1194.75 895.68,-1200.75 889.68,-1200.75 889.68,-1200.75 428.1,-1200.75 428.1,-1200.75 422.1,-1200.75 416.1,-1194.75 416.1,-1188.75 416.1,-1188.75 416.1,-1009.75 416.1,-1009.75 416.1,-1003.75 422.1,-997.75 428.1,-997.75"/>
<text xml:space="preserve" text-anchor="middle" x="584.6" y="-1185.35" font-family="Sans-Serif" font-size="12.00" fill="#2d3436">Analytics Subnet: PULSE&#45;analytics&#45;pg&#45;subnet (10.10.3.0/24)</text>
</g>
<g id="clust6" class="cluster">
<title>cluster_Private DNS Zones + VNet Links</title>
<path fill="#ebf3e7" stroke="#aeb6be" d="M428.1,-1237.75C428.1,-1237.75 889.68,-1237.75 889.68,-1237.75 895.68,-1237.75 901.68,-1243.75 901.68,-1249.75 901.68,-1249.75 901.68,-1938.75 901.68,-1938.75 901.68,-1944.75 895.68,-1950.75 889.68,-1950.75 889.68,-1950.75 428.1,-1950.75 428.1,-1950.75 422.1,-1950.75 416.1,-1944.75 416.1,-1938.75 416.1,-1938.75 416.1,-1249.75 416.1,-1249.75 416.1,-1243.75 422.1,-1237.75 428.1,-1237.75"/>
<text xml:space="preserve" text-anchor="middle" x="511.48" y="-1935.35" font-family="Sans-Serif" font-size="12.00" fill="#2d3436">Private DNS Zones + VNet Links</text>
</g>
<g id="clust7" class="cluster">
<title>cluster_Azure OpenAI: Cognitive Account + Deployments</title>
<path fill="#ebf3e7" stroke="#aeb6be" d="M1072.65,-1121.75C1072.65,-1121.75 1398.25,-1121.75 1398.25,-1121.75 1404.25,-1121.75 1410.25,-1127.75 1410.25,-1133.75 1410.25,-1133.75 1410.25,-1822.75 1410.25,-1822.75 1410.25,-1828.75 1404.25,-1834.75 1398.25,-1834.75 1398.25,-1834.75 1072.65,-1834.75 1072.65,-1834.75 1066.65,-1834.75 1060.65,-1828.75 1060.65,-1822.75 1060.65,-1822.75 1060.65,-1133.75 1060.65,-1133.75 1060.65,-1127.75 1066.65,-1121.75 1072.65,-1121.75"/>
<text xml:space="preserve" text-anchor="middle" x="1199.15" y="-1819.35" font-family="Sans-Serif" font-size="12.00" fill="#2d3436">Azure OpenAI: Cognitive Account + Deployments</text>
</g>
<g id="clust8" class="cluster">
<title>cluster_Storage Account + Containers</title>
<path fill="#ebf3e7" stroke="#aeb6be" d="M1072.65,-39.75C1072.65,-39.75 1398.25,-39.75 1398.25,-39.75 1404.25,-39.75 1410.25,-45.75 1410.25,-51.75 1410.25,-51.75 1410.25,-740.75 1410.25,-740.75 1410.25,-746.75 1404.25,-752.75 1398.25,-752.75 1398.25,-752.75 1072.65,-752.75 1072.65,-752.75 1066.65,-752.75 1060.65,-746.75 1060.65,-740.75 1060.65,-740.75 1060.65,-51.75 1060.65,-51.75 1060.65,-45.75 1066.65,-39.75 1072.65,-39.75"/>
<text xml:space="preserve" text-anchor="middle" x="1148.15" y="-737.35" font-family="Sans-Serif" font-size="12.00" fill="#2d3436">Storage Account + Containers</text>
</g>
<g id="clust9" class="cluster">
<title>cluster_Observability</title>
<path fill="#ebf3e7" stroke="#aeb6be" d="M1305.45,-760.75C1305.45,-760.75 1398.25,-760.75 1398.25,-760.75 1404.25,-760.75 1410.25,-766.75 1410.25,-772.75 1410.25,-772.75 1410.25,-1101.75 1410.25,-1101.75 1410.25,-1107.75 1404.25,-1113.75 1398.25,-1113.75 1398.25,-1113.75 1305.45,-1113.75 1305.45,-1113.75 1299.45,-1113.75 1293.45,-1107.75 1293.45,-1101.75 1293.45,-1101.75 1293.45,-772.75 1293.45,-772.75 1293.45,-766.75 1299.45,-760.75 1305.45,-760.75"/>
<text xml:space="preserve" text-anchor="middle" x="1336.33" y="-1098.35" font-family="Sans-Serif" font-size="12.00" fill="#2d3436">Observability</text>
</g>
<!-- 7db72f8bec5e46788d93526b5893e428 -->
<g id="node1" class="node">
<title>7db72f8bec5e46788d93526b5893e428</title>
<image xlink:href="/Library/Frameworks/Python.framework/Versions/3.13/lib/python3.13/site-packages/resources/azure/network/subnets.png" width="100.8px" height="100.8px" preserveAspectRatio="xMinYMin meet" x="32" y="-377.15"/>
<text xml:space="preserve" text-anchor="middle" x="82.4" y="-259.5" font-family="Sans-Serif" font-size="13.00" fill="#2d3436">Subnet: PULSE&#45;app&#45;subnet</text>
</g>
<!-- 4b808b2363444b20bfee1842878f0b60 -->
<g id="node2" class="node">
<title>4b808b2363444b20bfee1842878f0b60</title>
<image xlink:href="/Library/Frameworks/Python.framework/Versions/3.13/lib/python3.13/site-packages/resources/azure/web/app-service-plans.png" width="100.8px" height="100.8px" preserveAspectRatio="xMinYMin meet" x="219.05" y="-303.15"/>
<text xml:space="preserve" text-anchor="middle" x="269.45" y="-185.5" font-family="Sans-Serif" font-size="13.00" fill="#2d3436">App Service Plan (asp&#45;PULSE&#45;training&#45;&lt;env&gt;)</text>
</g>
<!-- 7db72f8bec5e46788d93526b5893e428&#45;&gt;4b808b2363444b20bfee1842878f0b60 -->
<g id="edge1" class="edge">
<title>7db72f8bec5e46788d93526b5893e428&#45;&gt;4b808b2363444b20bfee1842878f0b60</title>
<path fill="none" stroke="#7b8894" d="M132.53,-289.75C159.36,-289.75 192.33,-289.75 219.19,-289.75"/>
<text xml:space="preserve" text-anchor="middle" x="175.93" y="-278.9" font-family="Sans-Serif" font-size="13.00" fill="#2d3436">hosts</text>
</g>
<!-- 04e4f1f3b90b4de5a937e7e1bfaa5059 -->
<g id="node3" class="node">
<title>04e4f1f3b90b4de5a937e7e1bfaa5059</title>
<image xlink:href="/Library/Frameworks/Python.framework/Versions/3.13/lib/python3.13/site-packages/resources/azure/web/app-services.png" width="100.8px" height="100.8px" preserveAspectRatio="xMinYMin meet" x="424.1" y="-402.15"/>
<text xml:space="preserve" text-anchor="middle" x="474.5" y="-284.5" font-family="Sans-Serif" font-size="13.00" fill="#2d3436">Web App: app&#45;PULSE&#45;training&#45;ui&#45;&lt;env&gt;</text>
</g>
<!-- 7db72f8bec5e46788d93526b5893e428&#45;&gt;04e4f1f3b90b4de5a937e7e1bfaa5059 -->
<g id="edge2" class="edge">
<title>7db72f8bec5e46788d93526b5893e428&#45;&gt;04e4f1f3b90b4de5a937e7e1bfaa5059</title>
<path fill="none" stroke="#7b8894" d="M132.46,-358.15C207.61,-358.15 348.78,-358.15 424.12,-358.15"/>
<text xml:space="preserve" text-anchor="middle" x="269.45" y="-407.9" font-family="Sans-Serif" font-size="13.00" fill="#2d3436">hosts</text>
</g>
<!-- 293d83370052429e81a29408eb3a7e94 -->
<g id="node4" class="node">
<title>293d83370052429e81a29408eb3a7e94</title>
<image xlink:href="/Library/Frameworks/Python.framework/Versions/3.13/lib/python3.13/site-packages/resources/azure/compute/function-apps.png" width="100.8px" height="100.8px" preserveAspectRatio="xMinYMin meet" x="424.1" y="-208.15"/>
<text xml:space="preserve" text-anchor="middle" x="474.5" y="-89.6" font-family="Sans-Serif" font-size="13.00" fill="#2d3436">Function App: func&#45;PULSE&#45;training&#45;scenario&#45;&lt;env&gt;</text>
<text xml:space="preserve" text-anchor="middle" x="474.5" y="-76.1" font-family="Sans-Serif" font-size="13.00" fill="#2d3436">Routes: /session/*, /audio/chunk, /trainer/pulse/step, /admin/*</text>
</g>
<!-- 7db72f8bec5e46788d93526b5893e428&#45;&gt;293d83370052429e81a29408eb3a7e94 -->
<g id="edge3" class="edge">
<title>7db72f8bec5e46788d93526b5893e428&#45;&gt;293d83370052429e81a29408eb3a7e94</title>
<path fill="none" stroke="#7b8894" d="M82.25,-258.37C82.25,-201.44 82.25,-129.65 82.25,-129.65 82.25,-129.65 318.68,-129.65 424.42,-129.65"/>
<text xml:space="preserve" text-anchor="middle" x="269.45" y="-128.9" font-family="Sans-Serif" font-size="13.00" fill="#2d3436">hosts</text>
</g>
<!-- 4b808b2363444b20bfee1842878f0b60&#45;&gt;04e4f1f3b90b4de5a937e7e1bfaa5059 -->
<g id="edge4" class="edge">
<title>4b808b2363444b20bfee1842878f0b60&#45;&gt;04e4f1f3b90b4de5a937e7e1bfaa5059</title>
<path fill="none" stroke="#7b8894" d="M319.61,-302.25C319.61,-302.25 412.63,-302.25 412.63,-302.25"/>
<polygon fill="#7b8894" stroke="#7b8894" points="412.63,-305.75 422.63,-302.25 412.63,-298.75 412.63,-305.75"/>
</g>
<!-- 4b808b2363444b20bfee1842878f0b60&#45;&gt;293d83370052429e81a29408eb3a7e94 -->
<g id="edge5" class="edge">
<title>4b808b2363444b20bfee1842878f0b60&#45;&gt;293d83370052429e81a29408eb3a7e94</title>
<path fill="none" stroke="#7b8894" d="M319.61,-212.45C319.61,-212.45 412.63,-212.45 412.63,-212.45"/>
<polygon fill="#7b8894" stroke="#7b8894" points="412.63,-215.95 422.63,-212.45 412.63,-208.95 412.63,-215.95"/>
</g>
<!-- 898fecf02e3a42f7a8c035d13cb8029f -->
<g id="node6" class="node">
<title>898fecf02e3a42f7a8c035d13cb8029f</title>
<image xlink:href="/Library/Frameworks/Python.framework/Versions/3.13/lib/python3.13/site-packages/resources/azure/network/private-endpoint.png" width="100.8px" height="100.8px" preserveAspectRatio="xMinYMin meet" x="792.875" y="-583.15"/>
<text xml:space="preserve" text-anchor="middle" x="843.28" y="-465.5" font-family="Sans-Serif" font-size="13.00" fill="#2d3436">Private Endpoint: Azure OpenAI</text>
</g>
<!-- 04e4f1f3b90b4de5a937e7e1bfaa5059&#45;&gt;898fecf02e3a42f7a8c035d13cb8029f -->
<g id="edge25" class="edge">
<title>04e4f1f3b90b4de5a937e7e1bfaa5059&#45;&gt;898fecf02e3a42f7a8c035d13cb8029f</title>
<path fill="none" stroke="#7b8894" d="M524.9,-418.02C622.16,-418.02 826.25,-418.02 826.25,-418.02 826.25,-418.02 826.25,-452.84 826.25,-452.84"/>
<polygon fill="#7b8894" stroke="#7b8894" points="822.75,-452.84 826.25,-462.84 829.75,-452.84 822.75,-452.84"/>
<text xml:space="preserve" text-anchor="middle" x="649.78" y="-187.9" font-family="Sans-Serif" font-size="13.00" fill="#2d3436">HTTPS via Private Endpoint</text>
</g>
<!-- 8c1452ded57446d8965ef5704756e6b6 -->
<g id="node7" class="node">
<title>8c1452ded57446d8965ef5704756e6b6</title>
<image xlink:href="/Library/Frameworks/Python.framework/Versions/3.13/lib/python3.13/site-packages/resources/azure/network/private-endpoint.png" width="100.8px" height="100.8px" preserveAspectRatio="xMinYMin meet" x="792.875" y="-763.15"/>
<text xml:space="preserve" text-anchor="middle" x="843.28" y="-645.5" font-family="Sans-Serif" font-size="13.00" fill="#2d3436">Private Endpoint: Storage Blob</text>
</g>
<!-- 04e4f1f3b90b4de5a937e7e1bfaa5059&#45;&gt;8c1452ded57446d8965ef5704756e6b6 -->
<g id="edge28" class="edge">
<title>04e4f1f3b90b4de5a937e7e1bfaa5059&#45;&gt;8c1452ded57446d8965ef5704756e6b6</title>
<path fill="none" stroke="#7b8894" d="M457.25,-419.97C457.25,-518.47 457.25,-688.85 457.25,-688.85 457.25,-688.85 781.69,-688.85 781.69,-688.85"/>
<polygon fill="#7b8894" stroke="#7b8894" points="781.69,-692.35 791.69,-688.85 781.69,-685.35 781.69,-692.35"/>
<text xml:space="preserve" text-anchor="middle" x="649.78" y="-311.9" font-family="Sans-Serif" font-size="13.00" fill="#2d3436">Blob via Private Endpoint</text>
</g>
<!-- 7bd0cc8d678c42269cde0529d5f98088 -->
<g id="node8" class="node">
<title>7bd0cc8d678c42269cde0529d5f98088</title>
<image xlink:href="/Library/Frameworks/Python.framework/Versions/3.13/lib/python3.13/site-packages/resources/azure/network/private-endpoint.png" width="100.8px" height="100.8px" preserveAspectRatio="xMinYMin meet" x="792.875" y="-943.15"/>
<text xml:space="preserve" text-anchor="middle" x="843.28" y="-825.5" font-family="Sans-Serif" font-size="13.00" fill="#2d3436">Private Endpoint: Web App (optional)</text>
</g>
<!-- 04e4f1f3b90b4de5a937e7e1bfaa5059&#45;&gt;7bd0cc8d678c42269cde0529d5f98088 -->
<g id="edge33" class="edge">
<title>04e4f1f3b90b4de5a937e7e1bfaa5059&#45;&gt;7bd0cc8d678c42269cde0529d5f98088</title>
<path fill="none" stroke="#7b8894" d="M524.84,-413.75C598.31,-413.75 726.25,-413.75 726.25,-413.75 726.25,-413.75 726.25,-835.8 726.25,-835.8 726.25,-835.8 781.45,-835.8 781.45,-835.8"/>
<polygon fill="#7b8894" stroke="#7b8894" points="781.45,-839.3 791.45,-835.8 781.45,-832.3 781.45,-839.3"/>
<text xml:space="preserve" text-anchor="middle" x="649.78" y="-373.9" font-family="Sans-Serif" font-size="13.00" fill="#2d3436">Private Endpoint (optional)</text>
</g>
<!-- 99a24ee9ba4547978103bf677f56942d -->
<g id="node10" class="node">
<title>99a24ee9ba4547978103bf677f56942d</title>
<image xlink:href="/Library/Frameworks/Python.framework/Versions/3.13/lib/python3.13/site-packages/resources/azure/database/database-for-postgresql-servers.png" width="100.8px" height="100.8px" preserveAspectRatio="xMinYMin meet" x="792.875" y="-1139.15"/>
<text xml:space="preserve" text-anchor="middle" x="843.28" y="-1020.6" font-family="Sans-Serif" font-size="13.00" fill="#2d3436">Analytics PostgreSQL Flexible Server</text>
<text xml:space="preserve" text-anchor="middle" x="843.28" y="-1007.1" font-family="Sans-Serif" font-size="13.00" fill="#2d3436">(pg&#45;PULSE&#45;training&#45;analytics&#45;&lt;env&gt;)</text>
</g>
<!-- 04e4f1f3b90b4de5a937e7e1bfaa5059&#45;&gt;99a24ee9ba4547978103bf677f56942d -->
<g id="edge31" class="edge">
<title>04e4f1f3b90b4de5a937e7e1bfaa5059&#45;&gt;99a24ee9ba4547978103bf677f56942d</title>
<path fill="none" stroke="#7b8894" d="M524.5,-415.88C579.21,-415.88 659.25,-415.88 659.25,-415.88 659.25,-415.88 659.25,-1022.88 659.25,-1022.88 659.25,-1022.88 781.48,-1022.88 781.48,-1022.88"/>
<polygon fill="#7b8894" stroke="#7b8894" points="781.48,-1026.38 791.48,-1022.88 781.48,-1019.38 781.48,-1026.38"/>
<text xml:space="preserve" text-anchor="middle" x="649.78" y="-435.9" font-family="Sans-Serif" font-size="13.00" fill="#2d3436">PULSE_ANALYTICS_DB_HOST</text>
</g>
<!-- b1b5bc72a44a4a5a82f4d22cb5d4a754 -->
<g id="node11" class="node">
<title>b1b5bc72a44a4a5a82f4d22cb5d4a754</title>
<image xlink:href="/Library/Frameworks/Python.framework/Versions/3.13/lib/python3.13/site-packages/resources/azure/network/virtual-networks.png" width="100.8px" height="100.8px" preserveAspectRatio="xMinYMin meet" x="792.875" y="-1612.15"/>
<text xml:space="preserve" text-anchor="middle" x="843.28" y="-1494.5" font-family="Sans-Serif" font-size="13.00" fill="#2d3436">Virtual Network</text>
</g>
<!-- 04e4f1f3b90b4de5a937e7e1bfaa5059&#45;&gt;b1b5bc72a44a4a5a82f4d22cb5d4a754 -->
<g id="edge35" class="edge">
<title>04e4f1f3b90b4de5a937e7e1bfaa5059&#45;&gt;b1b5bc72a44a4a5a82f4d22cb5d4a754</title>
<path fill="none" stroke="#7b8894" d="M524.78,-385.75C556.78,-385.75 592.25,-385.75 592.25,-385.75 592.25,-385.75 592.25,-1520.87 592.25,-1520.87 592.25,-1520.87 781.57,-1520.87 781.57,-1520.87"/>
<polygon fill="#7b8894" stroke="#7b8894" points="781.57,-1524.37 791.57,-1520.87 781.57,-1517.37 781.57,-1524.37"/>
<text xml:space="preserve" text-anchor="middle" x="649.78" y="-1376.9" font-family="Sans-Serif" font-size="13.00" fill="#2d3436">VNet Swift Integration</text>
</g>
<!-- 4f418572cf9c467ca6cfdf5d04bed92b -->
<g id="node26" class="node">
<title>4f418572cf9c467ca6cfdf5d04bed92b</title>
<image xlink:href="/Library/Frameworks/Python.framework/Versions/3.13/lib/python3.13/site-packages/resources/azure/monitor/logs.png" width="100.8px" height="100.8px" preserveAspectRatio="xMinYMin meet" x="1301.45" y="-887.15"/>
<text xml:space="preserve" text-anchor="middle" x="1351.85" y="-769.5" font-family="Sans-Serif" font-size="13.00" fill="#2d3436">Log Analytics Workspace (law&#45;PULSE&#45;training&#45;&lt;env&gt;)</text>
</g>
<!-- 04e4f1f3b90b4de5a937e7e1bfaa5059&#45;&gt;4f418572cf9c467ca6cfdf5d04bed92b -->
<g id="edge39" class="edge">
<title>04e4f1f3b90b4de5a937e7e1bfaa5059&#45;&gt;4f418572cf9c467ca6cfdf5d04bed92b</title>
<path fill="none" stroke="#7b8894" d="M524.48,-409.48C652.32,-409.48 981.25,-409.48 981.25,-409.48 981.25,-409.48 981.25,-778.59 981.25,-778.59 981.25,-778.59 1289.97,-778.59 1289.97,-778.59"/>
<polygon fill="#7b8894" stroke="#7b8894" points="1289.97,-782.09 1299.97,-778.59 1289.97,-775.09 1289.97,-782.09"/>
<text xml:space="preserve" text-anchor="middle" x="990.28" y="-443.9" font-family="Sans-Serif" font-size="13.00" fill="#2d3436">diag_webapp</text>
</g>
<!-- 4786af3d6e4c4986a2c9c3ea37e92390 -->
<g id="node27" class="node">
<title>4786af3d6e4c4986a2c9c3ea37e92390</title>
<image xlink:href="/Library/Frameworks/Python.framework/Versions/3.13/lib/python3.13/site-packages/resources/azure/devops/application-insights.png" width="100.8px" height="100.8px" preserveAspectRatio="xMinYMin meet" x="1301.45" y="-1067.15"/>
<text xml:space="preserve" text-anchor="middle" x="1351.85" y="-949.5" font-family="Sans-Serif" font-size="13.00" fill="#2d3436">Application Insights (appi&#45;PULSE&#45;training&#45;&lt;env&gt;)</text>
</g>
<!-- 04e4f1f3b90b4de5a937e7e1bfaa5059&#45;&gt;4786af3d6e4c4986a2c9c3ea37e92390 -->
<g id="edge41" class="edge">
<title>04e4f1f3b90b4de5a937e7e1bfaa5059&#45;&gt;4786af3d6e4c4986a2c9c3ea37e92390</title>
<path fill="none" stroke="#7b8894" d="M524.67,-411.62C641.77,-411.62 923.25,-411.62 923.25,-411.62 923.25,-411.62 923.25,-956.88 923.25,-956.88 923.25,-956.88 1290.33,-956.88 1290.33,-956.88"/>
<polygon fill="#7b8894" stroke="#7b8894" points="1290.33,-960.38 1300.33,-956.88 1290.33,-953.38 1290.33,-960.38"/>
<text xml:space="preserve" text-anchor="middle" x="990.28" y="-899.9" font-family="Sans-Serif" font-size="13.00" fill="#2d3436">AppInsights</text>
</g>
<!-- 293d83370052429e81a29408eb3a7e94&#45;&gt;898fecf02e3a42f7a8c035d13cb8029f -->
<g id="edge26" class="edge">
<title>293d83370052429e81a29408eb3a7e94&#45;&gt;898fecf02e3a42f7a8c035d13cb8029f</title>
<path fill="none" stroke="#7b8894" d="M524.53,-238.66C628.91,-238.66 860.25,-238.66 860.25,-238.66 860.25,-238.66 860.25,-453.03 860.25,-453.03"/>
<polygon fill="#7b8894" stroke="#7b8894" points="856.75,-453.03 860.25,-463.03 863.75,-453.03 856.75,-453.03"/>
<text xml:space="preserve" text-anchor="middle" x="649.78" y="-125.9" font-family="Sans-Serif" font-size="13.00" fill="#2d3436">HTTPS via Private Endpoint</text>
</g>
<!-- 293d83370052429e81a29408eb3a7e94&#45;&gt;99a24ee9ba4547978103bf677f56942d -->
<g id="edge32" class="edge">
<title>293d83370052429e81a29408eb3a7e94&#45;&gt;99a24ee9ba4547978103bf677f56942d</title>
<path fill="none" stroke="#7b8894" d="M524.73,-236.78C589.04,-236.78 692.25,-236.78 692.25,-236.78 692.25,-236.78 692.25,-1014.42 692.25,-1014.42 692.25,-1014.42 781.47,-1014.42 781.47,-1014.42"/>
<polygon fill="#7b8894" stroke="#7b8894" points="781.47,-1017.92 791.47,-1014.42 781.47,-1010.92 781.47,-1017.92"/>
<text xml:space="preserve" text-anchor="middle" x="649.78" y="-249.9" font-family="Sans-Serif" font-size="13.00" fill="#2d3436">PULSE_ANALYTICS_DB_HOST</text>
</g>
<!-- 293d83370052429e81a29408eb3a7e94&#45;&gt;b1b5bc72a44a4a5a82f4d22cb5d4a754 -->
<g id="edge36" class="edge">
<title>293d83370052429e81a29408eb3a7e94&#45;&gt;b1b5bc72a44a4a5a82f4d22cb5d4a754</title>
<path fill="none" stroke="#7b8894" d="M524.7,-205.75C568.55,-205.75 625.25,-205.75 625.25,-205.75 625.25,-205.75 625.25,-1507.11 625.25,-1507.11 625.25,-1507.11 781.47,-1507.11 781.47,-1507.11"/>
<polygon fill="#7b8894" stroke="#7b8894" points="781.47,-1510.61 791.47,-1507.11 781.47,-1503.61 781.47,-1510.61"/>
<text xml:space="preserve" text-anchor="middle" x="649.78" y="-1252.9" font-family="Sans-Serif" font-size="13.00" fill="#2d3436">VNet Swift Integration</text>
</g>
<!-- bc2b3e163ef844efb9730660585274d4 -->
<g id="node21" class="node">
<title>bc2b3e163ef844efb9730660585274d4</title>
<image xlink:href="/Library/Frameworks/Python.framework/Versions/3.13/lib/python3.13/site-packages/resources/azure/storage/storage-accounts.png" width="100.8px" height="100.8px" preserveAspectRatio="xMinYMin meet" x="1068.65" y="-526.15"/>
<text xml:space="preserve" text-anchor="middle" x="1119.05" y="-408.5" font-family="Sans-Serif" font-size="13.00" fill="#2d3436">Storage Account (sa&#45;&lt;name&gt;)</text>
</g>
<!-- 293d83370052429e81a29408eb3a7e94&#45;&gt;bc2b3e163ef844efb9730660585274d4 -->
<g id="edge30" class="edge">
<title>293d83370052429e81a29408eb3a7e94&#45;&gt;bc2b3e163ef844efb9730660585274d4</title>
<path fill="none" stroke="#7b8894" d="M524.69,-229.24C672.23,-229.24 1094.25,-229.24 1094.25,-229.24 1094.25,-229.24 1094.25,-395.9 1094.25,-395.9"/>
<polygon fill="#7b8894" stroke="#7b8894" points="1090.75,-395.9 1094.25,-405.9 1097.75,-395.9 1090.75,-395.9"/>
<text xml:space="preserve" text-anchor="middle" x="843.28" y="-83.9" font-family="Sans-Serif" font-size="13.00" fill="#2d3436">AzureWebJobsStorage</text>
</g>
<!-- 293d83370052429e81a29408eb3a7e94&#45;&gt;4f418572cf9c467ca6cfdf5d04bed92b -->
<g id="edge40" class="edge">
<title>293d83370052429e81a29408eb3a7e94&#45;&gt;4f418572cf9c467ca6cfdf5d04bed92b</title>
<path fill="none" stroke="#7b8894" d="M524.62,-231.12C662.83,-231.12 1039.25,-231.12 1039.25,-231.12 1039.25,-231.12 1039.25,-773.47 1039.25,-773.47 1039.25,-773.47 1290.11,-773.47 1290.11,-773.47"/>
<polygon fill="#7b8894" stroke="#7b8894" points="1290.11,-776.97 1300.11,-773.47 1290.11,-769.97 1290.11,-776.97"/>
<text xml:space="preserve" text-anchor="middle" x="990.28" y="-353.9" font-family="Sans-Serif" font-size="13.00" fill="#2d3436">diag_functionapp</text>
</g>
<!-- 293d83370052429e81a29408eb3a7e94&#45;&gt;4f418572cf9c467ca6cfdf5d04bed92b -->
<g id="edge43" class="edge">
<title>293d83370052429e81a29408eb3a7e94&#45;&gt;4f418572cf9c467ca6cfdf5d04bed92b</title>
<path fill="none" stroke="#7b8894" d="M524.42,-233.01C657.42,-233.01 1010.25,-233.01 1010.25,-233.01 1010.25,-233.01 1010.25,-776.03 1010.25,-776.03 1010.25,-776.03 1290.3,-776.03 1290.3,-776.03"/>
<polygon fill="#7b8894" stroke="#7b8894" points="1290.3,-779.53 1300.3,-776.03 1290.3,-772.53 1290.3,-779.53"/>
</g>
<!-- 293d83370052429e81a29408eb3a7e94&#45;&gt;4786af3d6e4c4986a2c9c3ea37e92390 -->
<g id="edge42" class="edge">
<title>293d83370052429e81a29408eb3a7e94&#45;&gt;4786af3d6e4c4986a2c9c3ea37e92390</title>
<path fill="none" stroke="#7b8894" d="M524.72,-234.89C647.39,-234.89 952.25,-234.89 952.25,-234.89 952.25,-234.89 952.25,-952.62 952.25,-952.62 952.25,-952.62 1290.13,-952.62 1290.13,-952.62"/>
<polygon fill="#7b8894" stroke="#7b8894" points="1290.13,-956.12 1300.13,-952.62 1290.13,-949.12 1290.13,-956.12"/>
<text xml:space="preserve" text-anchor="middle" x="990.28" y="-752.9" font-family="Sans-Serif" font-size="13.00" fill="#2d3436">AppInsights</text>
</g>
<!-- 384cb6adcf0742df988f0b8ec43ec5bb -->
<g id="node5" class="node">
<title>384cb6adcf0742df988f0b8ec43ec5bb</title>
<image xlink:href="/Library/Frameworks/Python.framework/Versions/3.13/lib/python3.13/site-packages/resources/azure/network/subnets.png" width="100.8px" height="100.8px" preserveAspectRatio="xMinYMin meet" x="424.1" y="-852.15"/>
<text xml:space="preserve" text-anchor="middle" x="474.5" y="-734.5" font-family="Sans-Serif" font-size="13.00" fill="#2d3436">Subnet: PULSE&#45;private&#45;endpoints&#45;subnet</text>
</g>
<!-- 384cb6adcf0742df988f0b8ec43ec5bb&#45;&gt;898fecf02e3a42f7a8c035d13cb8029f -->
<g id="edge6" class="edge">
<title>384cb6adcf0742df988f0b8ec43ec5bb&#45;&gt;898fecf02e3a42f7a8c035d13cb8029f</title>
<path fill="none" stroke="#7b8894" d="M491.25,-733.52C491.25,-653.83 491.25,-532.75 491.25,-532.75 491.25,-532.75 696.02,-532.75 793.21,-532.75"/>
<text xml:space="preserve" text-anchor="middle" x="649.78" y="-621.9" font-family="Sans-Serif" font-size="13.00" fill="#2d3436">hosts</text>
</g>
<!-- 384cb6adcf0742df988f0b8ec43ec5bb&#45;&gt;8c1452ded57446d8965ef5704756e6b6 -->
<g id="edge7" class="edge">
<title>384cb6adcf0742df988f0b8ec43ec5bb&#45;&gt;8c1452ded57446d8965ef5704756e6b6</title>
<path fill="none" stroke="#7b8894" d="M524.62,-757.25C595.02,-757.25 722.47,-757.25 792.97,-757.25"/>
<text xml:space="preserve" text-anchor="middle" x="649.78" y="-742.9" font-family="Sans-Serif" font-size="13.00" fill="#2d3436">hosts</text>
</g>
<!-- 384cb6adcf0742df988f0b8ec43ec5bb&#45;&gt;7bd0cc8d678c42269cde0529d5f98088 -->
<g id="edge8" class="edge">
<title>384cb6adcf0742df988f0b8ec43ec5bb&#45;&gt;7bd0cc8d678c42269cde0529d5f98088</title>
<path fill="none" stroke="#7b8894" d="M524.62,-847.25C595.02,-847.25 722.47,-847.25 792.97,-847.25"/>
<text xml:space="preserve" text-anchor="middle" x="649.78" y="-863.9" font-family="Sans-Serif" font-size="13.00" fill="#2d3436">hosts</text>
</g>
<!-- d772b0d600ba4f5a8d287ff6e3d2ba4c -->
<g id="node16" class="node">
<title>d772b0d600ba4f5a8d287ff6e3d2ba4c</title>
<image xlink:href="/Library/Frameworks/Python.framework/Versions/3.13/lib/python3.13/site-packages/resources/azure/ml/azure-open-ai.png" width="100.8px" height="100.8px" preserveAspectRatio="xMinYMin meet" x="1068.65" y="-1251.15"/>
<text xml:space="preserve" text-anchor="middle" x="1119.05" y="-1133.5" font-family="Sans-Serif" font-size="13.00" fill="#2d3436">Cognitive Account (cog&#45;PULSE&#45;training&#45;&lt;env&gt;)</text>
</g>
<!-- 898fecf02e3a42f7a8c035d13cb8029f&#45;&gt;d772b0d600ba4f5a8d287ff6e3d2ba4c -->
<g id="edge27" class="edge">
<title>898fecf02e3a42f7a8c035d13cb8029f&#45;&gt;d772b0d600ba4f5a8d287ff6e3d2ba4c</title>
<path fill="none" stroke="#7b8894" d="M893.41,-596.55C964.29,-596.55 1085.25,-596.55 1085.25,-596.55 1085.25,-596.55 1085.25,-1121.1 1085.25,-1121.1"/>
<polygon fill="#7b8894" stroke="#7b8894" points="1081.75,-1121.1 1085.25,-1131.1 1088.75,-1121.1 1081.75,-1121.1"/>
<text xml:space="preserve" text-anchor="middle" x="990.28" y="-1101.9" font-family="Sans-Serif" font-size="13.00" fill="#2d3436">account</text>
</g>
<!-- 8c1452ded57446d8965ef5704756e6b6&#45;&gt;bc2b3e163ef844efb9730660585274d4 -->
<g id="edge29" class="edge">
<title>8c1452ded57446d8965ef5704756e6b6&#45;&gt;bc2b3e163ef844efb9730660585274d4</title>
<path fill="none" stroke="#7b8894" d="M893.57,-684.25C973.17,-684.25 1119.25,-684.25 1119.25,-684.25 1119.25,-684.25 1119.25,-555.53 1119.25,-555.53"/>
<polygon fill="#7b8894" stroke="#7b8894" points="1122.75,-555.53 1119.25,-545.53 1115.75,-555.53 1122.75,-555.53"/>
<text xml:space="preserve" text-anchor="middle" x="990.28" y="-519.9" font-family="Sans-Serif" font-size="13.00" fill="#2d3436">blob</text>
</g>
<!-- 20fd0cbfe54643b2adee58b9f846ac55 -->
<g id="node14" class="node">
<title>20fd0cbfe54643b2adee58b9f846ac55</title>
<image xlink:href="/Library/Frameworks/Python.framework/Versions/3.13/lib/python3.13/site-packages/resources/azure/network/dns-private-zones.png" width="100.8px" height="100.8px" preserveAspectRatio="xMinYMin meet" x="424.1" y="-1364.15"/>
<text xml:space="preserve" text-anchor="middle" x="474.5" y="-1246.5" font-family="Sans-Serif" font-size="13.00" fill="#2d3436">Zone: privatelink.azurewebsites.net (optional)</text>
</g>
<!-- 7bd0cc8d678c42269cde0529d5f98088&#45;&gt;20fd0cbfe54643b2adee58b9f846ac55 -->
<g id="edge34" class="edge">
<title>7bd0cc8d678c42269cde0529d5f98088&#45;&gt;20fd0cbfe54643b2adee58b9f846ac55</title>
<path fill="none" stroke="#7b8894" d="M792.94,-915.65C775.05,-915.65 759.25,-915.65 759.25,-915.65 759.25,-915.65 759.25,-1257.25 759.25,-1257.25 759.25,-1257.25 536.27,-1257.25 536.27,-1257.25"/>
<polygon fill="#7b8894" stroke="#7b8894" points="536.27,-1253.75 526.27,-1257.25 536.27,-1260.75 536.27,-1253.75"/>
<text xml:space="preserve" text-anchor="middle" x="649.78" y="-1314.9" font-family="Sans-Serif" font-size="13.00" fill="#2d3436">DNS zone group</text>
</g>
<!-- 9da9bf5f413044e3965bb68485af735b -->
<g id="node9" class="node">
<title>9da9bf5f413044e3965bb68485af735b</title>
<image xlink:href="/Library/Frameworks/Python.framework/Versions/3.13/lib/python3.13/site-packages/resources/azure/network/subnets.png" width="100.8px" height="100.8px" preserveAspectRatio="xMinYMin meet" x="424.1" y="-1150.15"/>
<text xml:space="preserve" text-anchor="middle" x="474.5" y="-1032.5" font-family="Sans-Serif" font-size="13.00" fill="#2d3436">Subnet: PULSE&#45;analytics&#45;pg&#45;subnet</text>
</g>
<!-- 9da9bf5f413044e3965bb68485af735b&#45;&gt;99a24ee9ba4547978103bf677f56942d -->
<g id="edge9" class="edge">
<title>9da9bf5f413044e3965bb68485af735b&#45;&gt;99a24ee9ba4547978103bf677f56942d</title>
<path fill="none" stroke="#7b8894" d="M524.62,-1099.75C595.02,-1099.75 722.47,-1099.75 792.97,-1099.75"/>
<text xml:space="preserve" text-anchor="middle" x="649.78" y="-1093.9" font-family="Sans-Serif" font-size="13.00" fill="#2d3436">hosts</text>
</g>
<!-- b1b5bc72a44a4a5a82f4d22cb5d4a754&#45;&gt;7db72f8bec5e46788d93526b5893e428 -->
<g id="edge10" class="edge">
<title>b1b5bc72a44a4a5a82f4d22cb5d4a754&#45;&gt;7db72f8bec5e46788d93526b5893e428</title>
<path fill="none" stroke="#7b8894" d="M793.05,-1583.75C623.41,-1583.75 82.25,-1583.75 82.25,-1583.75 82.25,-1583.75 82.25,-656.48 82.25,-394.78"/>
<text xml:space="preserve" text-anchor="middle" x="371.98" y="-1954.9" font-family="Sans-Serif" font-size="13.00" fill="#2d3436">contains</text>
</g>
<!-- b1b5bc72a44a4a5a82f4d22cb5d4a754&#45;&gt;384cb6adcf0742df988f0b8ec43ec5bb -->
<g id="edge11" class="edge">
<title>b1b5bc72a44a4a5a82f4d22cb5d4a754&#45;&gt;384cb6adcf0742df988f0b8ec43ec5bb</title>
<path fill="none" stroke="#7b8894" d="M792.97,-1534.63C711.15,-1534.63 558.25,-1534.63 558.25,-1534.63 558.25,-1534.63 558.25,-858.7 558.25,-858.7 558.25,-858.7 542.5,-858.7 524.67,-858.7"/>
<text xml:space="preserve" text-anchor="middle" x="649.78" y="-1438.9" font-family="Sans-Serif" font-size="13.00" fill="#2d3436">contains</text>
</g>
<!-- b1b5bc72a44a4a5a82f4d22cb5d4a754&#45;&gt;9da9bf5f413044e3965bb68485af735b -->
<g id="edge12" class="edge">
<title>b1b5bc72a44a4a5a82f4d22cb5d4a754&#45;&gt;9da9bf5f413044e3965bb68485af735b</title>
<path fill="none" stroke="#7b8894" d="M860.25,-1493.63C860.25,-1390.97 860.25,-1208.45 860.25,-1208.45 860.25,-1208.45 474.25,-1208.45 474.25,-1208.45 474.25,-1208.45 474.25,-1189.81 474.25,-1167.97"/>
<text xml:space="preserve" text-anchor="middle" x="649.78" y="-1500.9" font-family="Sans-Serif" font-size="13.00" fill="#2d3436">contains</text>
</g>
<!-- e1f525c1632b44a28b6d5f7bb76e6d56 -->
<g id="node12" class="node">
<title>e1f525c1632b44a28b6d5f7bb76e6d56</title>
<image xlink:href="/Library/Frameworks/Python.framework/Versions/3.13/lib/python3.13/site-packages/resources/azure/network/dns-private-zones.png" width="100.8px" height="100.8px" preserveAspectRatio="xMinYMin meet" x="424.1" y="-1544.15"/>
<text xml:space="preserve" text-anchor="middle" x="474.5" y="-1426.5" font-family="Sans-Serif" font-size="13.00" fill="#2d3436">Zone: privatelink.openai.azure.com</text>
</g>
<!-- e1f525c1632b44a28b6d5f7bb76e6d56&#45;&gt;b1b5bc72a44a4a5a82f4d22cb5d4a754 -->
<g id="edge13" class="edge">
<title>e1f525c1632b44a28b6d5f7bb76e6d56&#45;&gt;b1b5bc72a44a4a5a82f4d22cb5d4a754</title>
<path fill="none" stroke="#7b8894" d="M524.62,-1548.39C595.02,-1548.39 722.47,-1548.39 792.97,-1548.39"/>
<text xml:space="preserve" text-anchor="middle" x="649.78" y="-1624.9" font-family="Sans-Serif" font-size="13.00" fill="#2d3436">vnet link</text>
</g>
<!-- d27a67e09efc430aa12b64a54127c990 -->
<g id="node13" class="node">
<title>d27a67e09efc430aa12b64a54127c990</title>
<image xlink:href="/Library/Frameworks/Python.framework/Versions/3.13/lib/python3.13/site-packages/resources/azure/network/dns-private-zones.png" width="100.8px" height="100.8px" preserveAspectRatio="xMinYMin meet" x="424.1" y="-1724.15"/>
<text xml:space="preserve" text-anchor="middle" x="474.5" y="-1606.5" font-family="Sans-Serif" font-size="13.00" fill="#2d3436">Zone: privatelink.blob.core.windows.net</text>
</g>
<!-- d27a67e09efc430aa12b64a54127c990&#45;&gt;b1b5bc72a44a4a5a82f4d22cb5d4a754 -->
<g id="edge14" class="edge">
<title>d27a67e09efc430aa12b64a54127c990&#45;&gt;b1b5bc72a44a4a5a82f4d22cb5d4a754</title>
<path fill="none" stroke="#7b8894" d="M524.62,-1617.75C595.02,-1617.75 722.47,-1617.75 792.97,-1617.75"/>
<text xml:space="preserve" text-anchor="middle" x="649.78" y="-1686.9" font-family="Sans-Serif" font-size="13.00" fill="#2d3436">vnet link</text>
</g>
<!-- 20fd0cbfe54643b2adee58b9f846ac55&#45;&gt;b1b5bc72a44a4a5a82f4d22cb5d4a754 -->
<g id="edge15" class="edge">
<title>20fd0cbfe54643b2adee58b9f846ac55&#45;&gt;b1b5bc72a44a4a5a82f4d22cb5d4a754</title>
<path fill="none" stroke="#7b8894" d="M524.9,-1333.62C622.16,-1333.62 826.25,-1333.62 826.25,-1333.62 826.25,-1333.62 826.25,-1426.39 826.25,-1493.61"/>
<text xml:space="preserve" text-anchor="middle" x="649.78" y="-1562.9" font-family="Sans-Serif" font-size="13.00" fill="#2d3436">vnet link (optional)</text>
</g>
<!-- 902ab02f05dc4aaf8feef1706f6cdd2a -->
<g id="node15" class="node">
<title>902ab02f05dc4aaf8feef1706f6cdd2a</title>
<image xlink:href="/Library/Frameworks/Python.framework/Versions/3.13/lib/python3.13/site-packages/resources/azure/network/dns-private-zones.png" width="100.8px" height="100.8px" preserveAspectRatio="xMinYMin meet" x="424.1" y="-1904.15"/>
<text xml:space="preserve" text-anchor="middle" x="474.5" y="-1786.5" font-family="Sans-Serif" font-size="13.00" fill="#2d3436">Zone: privatelink.postgres.database.azure.com</text>
</g>
<!-- 902ab02f05dc4aaf8feef1706f6cdd2a&#45;&gt;b1b5bc72a44a4a5a82f4d22cb5d4a754 -->
<g id="edge16" class="edge">
<title>902ab02f05dc4aaf8feef1706f6cdd2a&#45;&gt;b1b5bc72a44a4a5a82f4d22cb5d4a754</title>
<path fill="none" stroke="#7b8894" d="M524.62,-1795.75C625.44,-1795.75 843.25,-1795.75 843.25,-1795.75 843.25,-1795.75 843.25,-1699.13 843.25,-1630.06"/>
<text xml:space="preserve" text-anchor="middle" x="649.78" y="-1801.9" font-family="Sans-Serif" font-size="13.00" fill="#2d3436">vnet link</text>
</g>
<!-- 415503d8017f454cb0290b40d3238a53 -->
<g id="node17" class="node">
<title>415503d8017f454cb0290b40d3238a53</title>
<image xlink:href="/Library/Frameworks/Python.framework/Versions/3.13/lib/python3.13/site-packages/resources/azure/ml/azure-open-ai.png" width="100.8px" height="100.8px" preserveAspectRatio="xMinYMin meet" x="1301.45" y="-1788.15"/>
<text xml:space="preserve" text-anchor="middle" x="1351.85" y="-1670.5" font-family="Sans-Serif" font-size="13.00" fill="#2d3436">Deployment: Persona&#45;Core&#45;Chat</text>
</g>
<!-- d772b0d600ba4f5a8d287ff6e3d2ba4c&#45;&gt;415503d8017f454cb0290b40d3238a53 -->
<g id="edge17" class="edge">
<title>d772b0d600ba4f5a8d287ff6e3d2ba4c&#45;&gt;415503d8017f454cb0290b40d3238a53</title>
<path fill="none" stroke="#7b8894" d="M1094.25,-1269.12C1094.25,-1407.08 1094.25,-1705.75 1094.25,-1705.75 1094.25,-1705.75 1290.06,-1705.75 1290.06,-1705.75"/>
<polygon fill="#7b8894" stroke="#7b8894" points="1290.06,-1709.25 1300.06,-1705.75 1290.06,-1702.25 1290.06,-1709.25"/>
</g>
<!-- dd53d7b0388a47cfb14ce5aae2861796 -->
<g id="node18" class="node">
<title>dd53d7b0388a47cfb14ce5aae2861796</title>
<image xlink:href="/Library/Frameworks/Python.framework/Versions/3.13/lib/python3.13/site-packages/resources/azure/ml/azure-open-ai.png" width="100.8px" height="100.8px" preserveAspectRatio="xMinYMin meet" x="1301.45" y="-1248.15"/>
<text xml:space="preserve" text-anchor="middle" x="1351.85" y="-1130.5" font-family="Sans-Serif" font-size="13.00" fill="#2d3436">Deployment: Persona&#45;High&#45;Reasoning</text>
</g>
<!-- d772b0d600ba4f5a8d287ff6e3d2ba4c&#45;&gt;dd53d7b0388a47cfb14ce5aae2861796 -->
<g id="edge18" class="edge">
<title>d772b0d600ba4f5a8d287ff6e3d2ba4c&#45;&gt;dd53d7b0388a47cfb14ce5aae2861796</title>
<path fill="none" stroke="#7b8894" d="M1169.28,-1199.25C1169.28,-1199.25 1290.2,-1199.25 1290.2,-1199.25"/>
<polygon fill="#7b8894" stroke="#7b8894" points="1290.2,-1202.75 1300.2,-1199.25 1290.2,-1195.75 1290.2,-1202.75"/>
</g>
<!-- ad047336388f447fb7992789a71798f3 -->
<g id="node19" class="node">
<title>ad047336388f447fb7992789a71798f3</title>
<image xlink:href="/Library/Frameworks/Python.framework/Versions/3.13/lib/python3.13/site-packages/resources/azure/ml/azure-open-ai.png" width="100.8px" height="100.8px" preserveAspectRatio="xMinYMin meet" x="1301.45" y="-1428.15"/>
<text xml:space="preserve" text-anchor="middle" x="1351.85" y="-1310.5" font-family="Sans-Serif" font-size="13.00" fill="#2d3436">Deployment: PULSE&#45;Audio&#45;Realtime</text>
</g>
<!-- d772b0d600ba4f5a8d287ff6e3d2ba4c&#45;&gt;ad047336388f447fb7992789a71798f3 -->
<g id="edge19" class="edge">
<title>d772b0d600ba4f5a8d287ff6e3d2ba4c&#45;&gt;ad047336388f447fb7992789a71798f3</title>
<path fill="none" stroke="#7b8894" d="M1144.25,-1268.76C1144.25,-1311.22 1144.25,-1357.88 1144.25,-1357.88 1144.25,-1357.88 1290.08,-1357.88 1290.08,-1357.88"/>
<polygon fill="#7b8894" stroke="#7b8894" points="1290.08,-1361.38 1300.08,-1357.88 1290.08,-1354.38 1290.08,-1361.38"/>
</g>
<!-- 200dd1eadf4f477983327be032477f3d -->
<g id="node20" class="node">
<title>200dd1eadf4f477983327be032477f3d</title>
<image xlink:href="/Library/Frameworks/Python.framework/Versions/3.13/lib/python3.13/site-packages/resources/azure/ml/azure-open-ai.png" width="100.8px" height="100.8px" preserveAspectRatio="xMinYMin meet" x="1301.45" y="-1608.15"/>
<text xml:space="preserve" text-anchor="middle" x="1351.85" y="-1490.5" font-family="Sans-Serif" font-size="13.00" fill="#2d3436">Deployment: Persona&#45;Visual&#45;Asset</text>
</g>
<!-- d772b0d600ba4f5a8d287ff6e3d2ba4c&#45;&gt;200dd1eadf4f477983327be032477f3d -->
<g id="edge20" class="edge">
<title>d772b0d600ba4f5a8d287ff6e3d2ba4c&#45;&gt;200dd1eadf4f477983327be032477f3d</title>
<path fill="none" stroke="#7b8894" d="M1119.25,-1269.12C1119.25,-1373.28 1119.25,-1559.75 1119.25,-1559.75 1119.25,-1559.75 1290.15,-1559.75 1290.15,-1559.75"/>
<polygon fill="#7b8894" stroke="#7b8894" points="1290.15,-1563.25 1300.15,-1559.75 1290.15,-1556.25 1290.15,-1563.25"/>
</g>
<!-- d772b0d600ba4f5a8d287ff6e3d2ba4c&#45;&gt;4f418572cf9c467ca6cfdf5d04bed92b -->
<g id="edge37" class="edge">
<title>d772b0d600ba4f5a8d287ff6e3d2ba4c&#45;&gt;4f418572cf9c467ca6cfdf5d04bed92b</title>
<path fill="none" stroke="#7b8894" d="M1102.25,-1132.35C1102.25,-1034.11 1102.25,-864.75 1102.25,-864.75 1102.25,-864.75 1290.13,-864.75 1290.13,-864.75"/>
<polygon fill="#7b8894" stroke="#7b8894" points="1290.13,-868.25 1300.13,-864.75 1290.13,-861.25 1290.13,-868.25"/>
<text xml:space="preserve" text-anchor="middle" x="1235.45" y="-1084.9" font-family="Sans-Serif" font-size="13.00" fill="#2d3436">diag_openai</text>
</g>
<!-- af5be3ff1e0f4a61a8c212105df73793 -->
<g id="node22" class="node">
<title>af5be3ff1e0f4a61a8c212105df73793</title>
<image xlink:href="/Library/Frameworks/Python.framework/Versions/3.13/lib/python3.13/site-packages/resources/azure/storage/storage-accounts.png" width="100.8px" height="100.8px" preserveAspectRatio="xMinYMin meet" x="1301.45" y="-706.15"/>
<text xml:space="preserve" text-anchor="middle" x="1351.85" y="-588.5" font-family="Sans-Serif" font-size="13.00" fill="#2d3436">Container: certification&#45;materials</text>
</g>
<!-- bc2b3e163ef844efb9730660585274d4&#45;&gt;af5be3ff1e0f4a61a8c212105df73793 -->
<g id="edge21" class="edge">
<title>bc2b3e163ef844efb9730660585274d4&#45;&gt;af5be3ff1e0f4a61a8c212105df73793</title>
<path fill="none" stroke="#7b8894" d="M1152.25,-544.02C1152.25,-569.31 1152.25,-591.95 1152.25,-591.95 1152.25,-591.95 1289.97,-591.95 1289.97,-591.95"/>
<polygon fill="#7b8894" stroke="#7b8894" points="1289.97,-595.45 1299.97,-591.95 1289.97,-588.45 1289.97,-595.45"/>
</g>
<!-- f0c70e9ee11144738aa5409ead928380 -->
<g id="node23" class="node">
<title>f0c70e9ee11144738aa5409ead928380</title>
<image xlink:href="/Library/Frameworks/Python.framework/Versions/3.13/lib/python3.13/site-packages/resources/azure/storage/storage-accounts.png" width="100.8px" height="100.8px" preserveAspectRatio="xMinYMin meet" x="1301.45" y="-166.15"/>
<text xml:space="preserve" text-anchor="middle" x="1351.85" y="-48.5" font-family="Sans-Serif" font-size="13.00" fill="#2d3436">Container: interaction&#45;logs</text>
</g>
<!-- bc2b3e163ef844efb9730660585274d4&#45;&gt;f0c70e9ee11144738aa5409ead928380 -->
<g id="edge22" class="edge">
<title>bc2b3e163ef844efb9730660585274d4&#45;&gt;f0c70e9ee11144738aa5409ead928380</title>
<path fill="none" stroke="#7b8894" d="M1119.25,-407.35C1119.25,-306.46 1119.25,-129.55 1119.25,-129.55 1119.25,-129.55 1290.15,-129.55 1290.15,-129.55"/>
<polygon fill="#7b8894" stroke="#7b8894" points="1290.15,-133.05 1300.15,-129.55 1290.15,-126.05 1290.15,-133.05"/>
</g>
<!-- 2c85b7fff27a4c89ab3e477269b48534 -->
<g id="node24" class="node">
<title>2c85b7fff27a4c89ab3e477269b48534</title>
<image xlink:href="/Library/Frameworks/Python.framework/Versions/3.13/lib/python3.13/site-packages/resources/azure/storage/storage-accounts.png" width="100.8px" height="100.8px" preserveAspectRatio="xMinYMin meet" x="1301.45" y="-346.15"/>
<text xml:space="preserve" text-anchor="middle" x="1351.85" y="-228.5" font-family="Sans-Serif" font-size="13.00" fill="#2d3436">Container: prompts</text>
</g>
<!-- bc2b3e163ef844efb9730660585274d4&#45;&gt;2c85b7fff27a4c89ab3e477269b48534 -->
<g id="edge23" class="edge">
<title>bc2b3e163ef844efb9730660585274d4&#45;&gt;2c85b7fff27a4c89ab3e477269b48534</title>
<path fill="none" stroke="#7b8894" d="M1144.25,-407.75C1144.25,-367.28 1144.25,-323.75 1144.25,-323.75 1144.25,-323.75 1290.08,-323.75 1290.08,-323.75"/>
<polygon fill="#7b8894" stroke="#7b8894" points="1290.08,-327.25 1300.08,-323.75 1290.08,-320.25 1290.08,-327.25"/>
</g>
<!-- 4d72d5ca34ce47a2b4cf52fcaae7feaf -->
<g id="node25" class="node">
<title>4d72d5ca34ce47a2b4cf52fcaae7feaf</title>
<image xlink:href="/Library/Frameworks/Python.framework/Versions/3.13/lib/python3.13/site-packages/resources/azure/storage/storage-accounts.png" width="100.8px" height="100.8px" preserveAspectRatio="xMinYMin meet" x="1301.45" y="-526.15"/>
<text xml:space="preserve" text-anchor="middle" x="1351.85" y="-408.5" font-family="Sans-Serif" font-size="13.00" fill="#2d3436">Container: trainer&#45;change&#45;logs</text>
</g>
<!-- bc2b3e163ef844efb9730660585274d4&#45;&gt;4d72d5ca34ce47a2b4cf52fcaae7feaf -->
<g id="edge24" class="edge">
<title>bc2b3e163ef844efb9730660585274d4&#45;&gt;4d72d5ca34ce47a2b4cf52fcaae7feaf</title>
<path fill="none" stroke="#7b8894" d="M1169.28,-475.75C1169.28,-475.75 1290.2,-475.75 1290.2,-475.75"/>
<polygon fill="#7b8894" stroke="#7b8894" points="1290.2,-479.25 1300.2,-475.75 1290.2,-472.25 1290.2,-479.25"/>
</g>
<!-- bc2b3e163ef844efb9730660585274d4&#45;&gt;4f418572cf9c467ca6cfdf5d04bed92b -->
<g id="edge38" class="edge">
<title>bc2b3e163ef844efb9730660585274d4&#45;&gt;4f418572cf9c467ca6cfdf5d04bed92b</title>
<path fill="none" stroke="#7b8894" d="M1136.25,-543.84C1136.25,-631 1136.25,-770.91 1136.25,-770.91 1136.25,-770.91 1290.06,-770.91 1290.06,-770.91"/>
<polygon fill="#7b8894" stroke="#7b8894" points="1290.06,-774.41 1300.06,-770.91 1290.06,-767.41 1290.06,-774.41"/>
<text xml:space="preserve" text-anchor="middle" x="1235.45" y="-680.9" font-family="Sans-Serif" font-size="13.00" fill="#2d3436">diag_storage</text>
</g>
</g>
</svg>
