<?xml version="1.0" encoding="UTF-8" standalone="no"?>
<!DOCTYPE svg PUBLIC "-//W3C//DTD SVG 1.1//EN"
 "http://www.w3.org/Graphics/SVG/1.1/DTD/svg11.dtd">
<!-- Generated by graphviz version 14.0.4 (20251115.1723)
 -->
<!-- Title: PULSE H2 &#45; Azure Network Architecture Pages: 1 -->
<svg width="1687pt" height="2160pt"
 viewBox="0.00 0.00 1687.00 2160.00" xmlns="http://www.w3.org/2000/svg" xmlns:xlink="http://www.w3.org/1999/xlink">
<g id="graph0" class="graph" transform="scale(1 1) rotate(0) translate(144 2015.75)">
<title>PULSE H2 &#45; Azure Network Architecture</title>
<polygon fill="white" stroke="none" points="-144,144 -144,-2015.75 1542.5,-2015.75 1542.5,144 -144,144"/>
<text xml:space="preserve" text-anchor="middle" x="699.25" y="-5.5" font-family="Sans-Serif" font-size="15.00" fill="#2d3436">PULSE H2 &#45; Azure Network Architecture</text>
<g id="clust1" class="cluster">
<title>cluster_Resource Group: rg&#45;PULSE&#45;training&#45;&lt;env&gt;</title>
<path fill="#e5f5fd" stroke="#aeb6be" d="M20,-31.75C20,-31.75 1378.5,-31.75 1378.5,-31.75 1384.5,-31.75 1390.5,-37.75 1390.5,-43.75 1390.5,-43.75 1390.5,-1851.75 1390.5,-1851.75 1390.5,-1857.75 1384.5,-1863.75 1378.5,-1863.75 1378.5,-1863.75 20,-1863.75 20,-1863.75 14,-1863.75 8,-1857.75 8,-1851.75 8,-1851.75 8,-43.75 8,-43.75 8,-37.75 14,-31.75 20,-31.75"/>
<text xml:space="preserve" text-anchor="middle" x="130.38" y="-1848.35" font-family="Sans-Serif" font-size="12.00" fill="#2d3436">Resource Group: rg&#45;PULSE&#45;training&#45;&lt;env&gt;</text>
</g>
<g id="clust2" class="cluster">
<title>cluster_Virtual Network: vnet&#45;PULSE&#45;training&#45;&lt;env&gt; (10.10.0.0/16)</title>
<path fill="#ebf3e7" stroke="#aeb6be" d="M28,-285.75C28,-285.75 869.93,-285.75 869.93,-285.75 875.93,-285.75 881.93,-291.75 881.93,-297.75 881.93,-297.75 881.93,-1233.75 881.93,-1233.75 881.93,-1239.75 875.93,-1245.75 869.93,-1245.75 869.93,-1245.75 28,-1245.75 28,-1245.75 22,-1245.75 16,-1239.75 16,-1233.75 16,-1233.75 16,-297.75 16,-297.75 16,-291.75 22,-285.75 28,-285.75"/>
<text xml:space="preserve" text-anchor="middle" x="179.25" y="-1230.35" font-family="Sans-Serif" font-size="12.00" fill="#2d3436">Virtual Network: vnet&#45;PULSE&#45;training&#45;&lt;env&gt; (10.10.0.0/16)</text>
</g>
<g id="clust3" class="cluster">
<title>cluster_App Subnet: PULSE&#45;app&#45;subnet (10.10.1.0/24)</title>
<path fill="#ece8f6" stroke="#aeb6be" d="M36,-293.75C36,-293.75 520.9,-293.75 520.9,-293.75 526.9,-293.75 532.9,-299.75 532.9,-305.75 532.9,-305.75 532.9,-663.75 532.9,-663.75 532.9,-669.75 526.9,-675.75 520.9,-675.75 520.9,-675.75 36,-675.75 36,-675.75 30,-675.75 24,-669.75 24,-663.75 24,-663.75 24,-305.75 24,-305.75 24,-299.75 30,-293.75 36,-293.75"/>
<text xml:space="preserve" text-anchor="middle" x="156.88" y="-660.35" font-family="Sans-Serif" font-size="12.00" fill="#2d3436">App Subnet: PULSE&#45;app&#45;subnet (10.10.1.0/24)</text>
</g>
<g id="clust4" class="cluster">
<title>cluster_Private Endpoints Subnet: PULSE&#45;private&#45;endpoints&#45;subnet (10.10.2.0/24)</title>
<path fill="#ece8f6" stroke="#aeb6be" d="M428.1,-683.75C428.1,-683.75 861.93,-683.75 861.93,-683.75 867.93,-683.75 873.93,-689.75 873.93,-695.75 873.93,-695.75 873.93,-1204.75 873.93,-1204.75 873.93,-1210.75 867.93,-1216.75 861.93,-1216.75 861.93,-1216.75 428.1,-1216.75 428.1,-1216.75 422.1,-1216.75 416.1,-1210.75 416.1,-1204.75 416.1,-1204.75 416.1,-695.75 416.1,-695.75 416.1,-689.75 422.1,-683.75 428.1,-683.75"/>
<text xml:space="preserve" text-anchor="middle" x="621.35" y="-1201.35" font-family="Sans-Serif" font-size="12.00" fill="#2d3436">Private Endpoints Subnet: PULSE&#45;private&#45;endpoints&#45;subnet (10.10.2.0/24)</text>
</g>
<g id="clust5" class="cluster">
<title>cluster_Private DNS Zones + VNet Links</title>
<path fill="#ebf3e7" stroke="#aeb6be" d="M428.1,-1285.75C428.1,-1285.75 861.93,-1285.75 861.93,-1285.75 867.93,-1285.75 873.93,-1291.75 873.93,-1297.75 873.93,-1297.75 873.93,-1806.75 873.93,-1806.75 873.93,-1812.75 867.93,-1818.75 861.93,-1818.75 861.93,-1818.75 428.1,-1818.75 428.1,-1818.75 422.1,-1818.75 416.1,-1812.75 416.1,-1806.75 416.1,-1806.75 416.1,-1297.75 416.1,-1297.75 416.1,-1291.75 422.1,-1285.75 428.1,-1285.75"/>
<text xml:space="preserve" text-anchor="middle" x="511.48" y="-1803.35" font-family="Sans-Serif" font-size="12.00" fill="#2d3436">Private DNS Zones + VNet Links</text>
</g>
<g id="clust6" class="cluster">
<title>cluster_Azure OpenAI: Cognitive Account + Deployments</title>
<path fill="#ebf3e7" stroke="#aeb6be" d="M1044.9,-1121.75C1044.9,-1121.75 1370.5,-1121.75 1370.5,-1121.75 1376.5,-1121.75 1382.5,-1127.75 1382.5,-1133.75 1382.5,-1133.75 1382.5,-1822.75 1382.5,-1822.75 1382.5,-1828.75 1376.5,-1834.75 1370.5,-1834.75 1370.5,-1834.75 1044.9,-1834.75 1044.9,-1834.75 1038.9,-1834.75 1032.9,-1828.75 1032.9,-1822.75 1032.9,-1822.75 1032.9,-1133.75 1032.9,-1133.75 1032.9,-1127.75 1038.9,-1121.75 1044.9,-1121.75"/>
<text xml:space="preserve" text-anchor="middle" x="1171.4" y="-1819.35" font-family="Sans-Serif" font-size="12.00" fill="#2d3436">Azure OpenAI: Cognitive Account + Deployments</text>
</g>
<g id="clust7" class="cluster">
<title>cluster_Storage Account + Containers</title>
<path fill="#ebf3e7" stroke="#aeb6be" d="M1044.9,-39.75C1044.9,-39.75 1370.5,-39.75 1370.5,-39.75 1376.5,-39.75 1382.5,-45.75 1382.5,-51.75 1382.5,-51.75 1382.5,-740.75 1382.5,-740.75 1382.5,-746.75 1376.5,-752.75 1370.5,-752.75 1370.5,-752.75 1044.9,-752.75 1044.9,-752.75 1038.9,-752.75 1032.9,-746.75 1032.9,-740.75 1032.9,-740.75 1032.9,-51.75 1032.9,-51.75 1032.9,-45.75 1038.9,-39.75 1044.9,-39.75"/>
<text xml:space="preserve" text-anchor="middle" x="1120.4" y="-737.35" font-family="Sans-Serif" font-size="12.00" fill="#2d3436">Storage Account + Containers</text>
</g>
<g id="clust8" class="cluster">
<title>cluster_Observability</title>
<path fill="#ebf3e7" stroke="#aeb6be" d="M1277.7,-760.75C1277.7,-760.75 1370.5,-760.75 1370.5,-760.75 1376.5,-760.75 1382.5,-766.75 1382.5,-772.75 1382.5,-772.75 1382.5,-1101.75 1382.5,-1101.75 1382.5,-1107.75 1376.5,-1113.75 1370.5,-1113.75 1370.5,-1113.75 1277.7,-1113.75 1277.7,-1113.75 1271.7,-1113.75 1265.7,-1107.75 1265.7,-1101.75 1265.7,-1101.75 1265.7,-772.75 1265.7,-772.75 1265.7,-766.75 1271.7,-760.75 1277.7,-760.75"/>
<text xml:space="preserve" text-anchor="middle" x="1308.58" y="-1098.35" font-family="Sans-Serif" font-size="12.00" fill="#2d3436">Observability</text>
</g>
<!-- 95ec82aab1e34d6b990cd6c549e606b1 -->
<g id="node1" class="node">
<title>95ec82aab1e34d6b990cd6c549e606b1</title>
<image xlink:href="/Library/Frameworks/Python.framework/Versions/3.13/lib/python3.13/site-packages/resources/azure/network/subnets.png" width="100.8px" height="100.8px" preserveAspectRatio="xMinYMin meet" x="32" y="-604.15"/>
<text xml:space="preserve" text-anchor="middle" x="82.4" y="-486.5" font-family="Sans-Serif" font-size="13.00" fill="#2d3436">Subnet: PULSE&#45;app&#45;subnet</text>
</g>
<!-- 7abfcf3b64bf48c38b95cd6207e6f321 -->
<g id="node2" class="node">
<title>7abfcf3b64bf48c38b95cd6207e6f321</title>
<image xlink:href="/Library/Frameworks/Python.framework/Versions/3.13/lib/python3.13/site-packages/resources/azure/web/app-service-plans.png" width="100.8px" height="100.8px" preserveAspectRatio="xMinYMin meet" x="219.05" y="-530.15"/>
<text xml:space="preserve" text-anchor="middle" x="269.45" y="-412.5" font-family="Sans-Serif" font-size="13.00" fill="#2d3436">App Service Plan (asp&#45;PULSE&#45;training&#45;&lt;env&gt;)</text>
</g>
<!-- 95ec82aab1e34d6b990cd6c549e606b1&#45;&gt;7abfcf3b64bf48c38b95cd6207e6f321 -->
<g id="edge1" class="edge">
<title>95ec82aab1e34d6b990cd6c549e606b1&#45;&gt;7abfcf3b64bf48c38b95cd6207e6f321</title>
<path fill="none" stroke="#7b8894" d="M132.53,-516.75C159.36,-516.75 192.33,-516.75 219.19,-516.75"/>
<text xml:space="preserve" text-anchor="middle" x="175.93" y="-505.9" font-family="Sans-Serif" font-size="13.00" fill="#2d3436">hosts</text>
</g>
<!-- 8621d56c9afe4f349919747c357721ba -->
<g id="node3" class="node">
<title>8621d56c9afe4f349919747c357721ba</title>
<image xlink:href="/Library/Frameworks/Python.framework/Versions/3.13/lib/python3.13/site-packages/resources/azure/web/app-services.png" width="100.8px" height="100.8px" preserveAspectRatio="xMinYMin meet" x="424.1" y="-420.15"/>
<text xml:space="preserve" text-anchor="middle" x="474.5" y="-302.5" font-family="Sans-Serif" font-size="13.00" fill="#2d3436">Web App: app&#45;PULSE&#45;training&#45;ui&#45;&lt;env&gt;</text>
</g>
<!-- 95ec82aab1e34d6b990cd6c549e606b1&#45;&gt;8621d56c9afe4f349919747c357721ba -->
<g id="edge2" class="edge">
<title>95ec82aab1e34d6b990cd6c549e606b1&#45;&gt;8621d56c9afe4f349919747c357721ba</title>
<path fill="none" stroke="#7b8894" d="M82.5,-485.54C82.5,-428.48 82.5,-356.35 82.5,-356.35 82.5,-356.35 318.78,-356.35 424.45,-356.35"/>
<text xml:space="preserve" text-anchor="middle" x="269.45" y="-355.9" font-family="Sans-Serif" font-size="13.00" fill="#2d3436">hosts</text>
</g>
<!-- f4fbc76a7b4d49f2b445edb609facb29 -->
<g id="node4" class="node">
<title>f4fbc76a7b4d49f2b445edb609facb29</title>
<image xlink:href="/Library/Frameworks/Python.framework/Versions/3.13/lib/python3.13/site-packages/resources/azure/compute/function-apps.png" width="100.8px" height="100.8px" preserveAspectRatio="xMinYMin meet" x="424.1" y="-614.15"/>
<text xml:space="preserve" text-anchor="middle" x="474.5" y="-495.6" font-family="Sans-Serif" font-size="13.00" fill="#2d3436">Function App: func&#45;PULSE&#45;training&#45;scenario&#45;&lt;env&gt;</text>
<text xml:space="preserve" text-anchor="middle" x="474.5" y="-482.1" font-family="Sans-Serif" font-size="13.00" fill="#2d3436">Routes: /session/*, /audio/chunk, /trainer/pulse/step, /admin/*</text>
</g>
<!-- 95ec82aab1e34d6b990cd6c549e606b1&#45;&gt;f4fbc76a7b4d49f2b445edb609facb29 -->
<g id="edge3" class="edge">
<title>95ec82aab1e34d6b990cd6c549e606b1&#45;&gt;f4fbc76a7b4d49f2b445edb609facb29</title>
<path fill="none" stroke="#7b8894" d="M132.46,-585.15C207.61,-585.15 348.78,-585.15 424.12,-585.15"/>
<text xml:space="preserve" text-anchor="middle" x="269.45" y="-634.9" font-family="Sans-Serif" font-size="13.00" fill="#2d3436">hosts</text>
</g>
<!-- 7abfcf3b64bf48c38b95cd6207e6f321&#45;&gt;8621d56c9afe4f349919747c357721ba -->
<g id="edge4" class="edge">
<title>7abfcf3b64bf48c38b95cd6207e6f321&#45;&gt;8621d56c9afe4f349919747c357721ba</title>
<path fill="none" stroke="#7b8894" d="M319.61,-424.75C319.61,-424.75 412.63,-424.75 412.63,-424.75"/>
<polygon fill="#7b8894" stroke="#7b8894" points="412.63,-428.25 422.63,-424.75 412.63,-421.25 412.63,-428.25"/>
</g>
<!-- 7abfcf3b64bf48c38b95cd6207e6f321&#45;&gt;f4fbc76a7b4d49f2b445edb609facb29 -->
<g id="edge5" class="edge">
<title>7abfcf3b64bf48c38b95cd6207e6f321&#45;&gt;f4fbc76a7b4d49f2b445edb609facb29</title>
<path fill="none" stroke="#7b8894" d="M319.61,-514.55C319.61,-514.55 412.63,-514.55 412.63,-514.55"/>
<polygon fill="#7b8894" stroke="#7b8894" points="412.63,-518.05 422.63,-514.55 412.63,-511.05 412.63,-518.05"/>
</g>
<!-- 2afd761810f140c49245fbbf02563899 -->
<g id="node6" class="node">
<title>2afd761810f140c49245fbbf02563899</title>
<image xlink:href="/Library/Frameworks/Python.framework/Versions/3.13/lib/python3.13/site-packages/resources/azure/network/private-endpoint.png" width="100.8px" height="100.8px" preserveAspectRatio="xMinYMin meet" x="765.125" y="-990.15"/>
<text xml:space="preserve" text-anchor="middle" x="815.53" y="-872.5" font-family="Sans-Serif" font-size="13.00" fill="#2d3436">Private Endpoint: Azure OpenAI</text>
</g>
<!-- 8621d56c9afe4f349919747c357721ba&#45;&gt;2afd761810f140c49245fbbf02563899 -->
<g id="edge22" class="edge">
<title>8621d56c9afe4f349919747c357721ba&#45;&gt;2afd761810f140c49245fbbf02563899</title>
<path fill="none" stroke="#7b8894" d="M524.85,-411.75C596.03,-411.75 717.5,-411.75 717.5,-411.75 717.5,-411.75 717.5,-916.95 717.5,-916.95 717.5,-916.95 753.85,-916.95 753.85,-916.95"/>
<polygon fill="#7b8894" stroke="#7b8894" points="753.85,-920.45 763.85,-916.95 753.85,-913.45 753.85,-920.45"/>
<text xml:space="preserve" text-anchor="middle" x="635.9" y="-797.9" font-family="Sans-Serif" font-size="13.00" fill="#2d3436">HTTPS via Private Endpoint</text>
</g>
<!-- 0fbbca6a782a411d9645ac0cca957fa2 -->
<g id="node7" class="node">
<title>0fbbca6a782a411d9645ac0cca957fa2</title>
<image xlink:href="/Library/Frameworks/Python.framework/Versions/3.13/lib/python3.13/site-packages/resources/azure/network/private-endpoint.png" width="100.8px" height="100.8px" preserveAspectRatio="xMinYMin meet" x="765.125" y="-810.15"/>
<text xml:space="preserve" text-anchor="middle" x="815.53" y="-692.5" font-family="Sans-Serif" font-size="13.00" fill="#2d3436">Private Endpoint: Storage Blob</text>
</g>
<!-- 8621d56c9afe4f349919747c357721ba&#45;&gt;0fbbca6a782a411d9645ac0cca957fa2 -->
<g id="edge25" class="edge">
<title>8621d56c9afe4f349919747c357721ba&#45;&gt;0fbbca6a782a411d9645ac0cca957fa2</title>
<path fill="none" stroke="#7b8894" d="M524.77,-433.75C615.78,-433.75 798.5,-433.75 798.5,-433.75 798.5,-433.75 798.5,-679.9 798.5,-679.9"/>
<polygon fill="#7b8894" stroke="#7b8894" points="795,-679.9 798.5,-689.9 802,-679.9 795,-679.9"/>
<text xml:space="preserve" text-anchor="middle" x="635.9" y="-722.9" font-family="Sans-Serif" font-size="13.00" fill="#2d3436">Blob via Private Endpoint</text>
</g>
<!-- 55420940532b4ad1ba88226dc1b8d691 -->
<g id="node8" class="node">
<title>55420940532b4ad1ba88226dc1b8d691</title>
<image xlink:href="/Library/Frameworks/Python.framework/Versions/3.13/lib/python3.13/site-packages/resources/azure/network/private-endpoint.png" width="100.8px" height="100.8px" preserveAspectRatio="xMinYMin meet" x="765.125" y="-1170.15"/>
<text xml:space="preserve" text-anchor="middle" x="815.53" y="-1052.5" font-family="Sans-Serif" font-size="13.00" fill="#2d3436">Private Endpoint: Web App (optional)</text>
</g>
<!-- 8621d56c9afe4f349919747c357721ba&#45;&gt;55420940532b4ad1ba88226dc1b8d691 -->
<g id="edge28" class="edge">
<title>8621d56c9afe4f349919747c357721ba&#45;&gt;55420940532b4ad1ba88226dc1b8d691</title>
<path fill="none" stroke="#7b8894" d="M524.72,-416.15C582.49,-416.15 669.5,-416.15 669.5,-416.15 669.5,-416.15 669.5,-1085.95 669.5,-1085.95 669.5,-1085.95 753.76,-1085.95 753.76,-1085.95"/>
<polygon fill="#7b8894" stroke="#7b8894" points="753.76,-1089.45 763.76,-1085.95 753.76,-1082.45 753.76,-1089.45"/>
<text xml:space="preserve" text-anchor="middle" x="635.9" y="-930.9" font-family="Sans-Serif" font-size="13.00" fill="#2d3436">Private Endpoint (optional)</text>
</g>
<!-- 0cc14b5b4bff45c58ffbb71da746ef97 -->
<g id="node9" class="node">
<title>0cc14b5b4bff45c58ffbb71da746ef97</title>
<image xlink:href="/Library/Frameworks/Python.framework/Versions/3.13/lib/python3.13/site-packages/resources/azure/network/virtual-networks.png" width="100.8px" height="100.8px" preserveAspectRatio="xMinYMin meet" x="765.125" y="-1586.15"/>
<text xml:space="preserve" text-anchor="middle" x="815.53" y="-1468.5" font-family="Sans-Serif" font-size="13.00" fill="#2d3436">Virtual Network</text>
</g>
<!-- 8621d56c9afe4f349919747c357721ba&#45;&gt;0cc14b5b4bff45c58ffbb71da746ef97 -->
<g id="edge30" class="edge">
<title>8621d56c9afe4f349919747c357721ba&#45;&gt;0cc14b5b4bff45c58ffbb71da746ef97</title>
<path fill="none" stroke="#7b8894" d="M524.74,-420.55C566.98,-420.55 620.5,-420.55 620.5,-420.55 620.5,-420.55 620.5,-1506.05 620.5,-1506.05 620.5,-1506.05 753.79,-1506.05 753.79,-1506.05"/>
<polygon fill="#7b8894" stroke="#7b8894" points="753.79,-1509.55 763.79,-1506.05 753.79,-1502.55 753.79,-1509.55"/>
<text xml:space="preserve" text-anchor="middle" x="635.9" y="-1288.9" font-family="Sans-Serif" font-size="13.00" fill="#2d3436">VNet Swift Integration</text>
</g>
<!-- 15d7cd24240f42e5994523869577ee5c -->
<g id="node23" class="node">
<title>15d7cd24240f42e5994523869577ee5c</title>
<image xlink:href="/Library/Frameworks/Python.framework/Versions/3.13/lib/python3.13/site-packages/resources/azure/monitor/logs.png" width="100.8px" height="100.8px" preserveAspectRatio="xMinYMin meet" x="1273.7" y="-887.15"/>
<text xml:space="preserve" text-anchor="middle" x="1324.1" y="-769.5" font-family="Sans-Serif" font-size="13.00" fill="#2d3436">Log Analytics Workspace (law&#45;PULSE&#45;training&#45;&lt;env&gt;)</text>
</g>
<!-- 8621d56c9afe4f349919747c357721ba&#45;&gt;15d7cd24240f42e5994523869577ee5c -->
<g id="edge34" class="edge">
<title>8621d56c9afe4f349919747c357721ba&#45;&gt;15d7cd24240f42e5994523869577ee5c</title>
<path fill="none" stroke="#7b8894" d="M524.62,-424.95C693.25,-424.95 1229.5,-424.95 1229.5,-424.95 1229.5,-424.95 1229.5,-788.28 1229.5,-788.28 1229.5,-788.28 1262.24,-788.28 1262.24,-788.28"/>
<polygon fill="#7b8894" stroke="#7b8894" points="1262.24,-791.78 1272.24,-788.28 1262.24,-784.78 1262.24,-791.78"/>
<text xml:space="preserve" text-anchor="middle" x="962.53" y="-514.9" font-family="Sans-Serif" font-size="13.00" fill="#2d3436">diag_webapp</text>
</g>
<!-- 2bb839dc56994de793847ee97f549403 -->
<g id="node24" class="node">
<title>2bb839dc56994de793847ee97f549403</title>
<image xlink:href="/Library/Frameworks/Python.framework/Versions/3.13/lib/python3.13/site-packages/resources/azure/devops/application-insights.png" width="100.8px" height="100.8px" preserveAspectRatio="xMinYMin meet" x="1273.7" y="-1067.15"/>
<text xml:space="preserve" text-anchor="middle" x="1324.1" y="-949.5" font-family="Sans-Serif" font-size="13.00" fill="#2d3436">Application Insights (appi&#45;PULSE&#45;training&#45;&lt;env&gt;)</text>
</g>
<!-- 8621d56c9afe4f349919747c357721ba&#45;&gt;2bb839dc56994de793847ee97f549403 -->
<g id="edge36" class="edge">
<title>8621d56c9afe4f349919747c357721ba&#45;&gt;2bb839dc56994de793847ee97f549403</title>
<path fill="none" stroke="#7b8894" d="M524.78,-429.35C686.92,-429.35 1185.5,-429.35 1185.5,-429.35 1185.5,-429.35 1185.5,-968.28 1185.5,-968.28 1185.5,-968.28 1262.55,-968.28 1262.55,-968.28"/>
<polygon fill="#7b8894" stroke="#7b8894" points="1262.55,-971.78 1272.55,-968.28 1262.55,-964.78 1262.55,-971.78"/>
<text xml:space="preserve" text-anchor="middle" x="962.53" y="-654.9" font-family="Sans-Serif" font-size="13.00" fill="#2d3436">AppInsights</text>
</g>
<!-- f4fbc76a7b4d49f2b445edb609facb29&#45;&gt;2afd761810f140c49245fbbf02563899 -->
<g id="edge23" class="edge">
<title>f4fbc76a7b4d49f2b445edb609facb29&#45;&gt;2afd761810f140c49245fbbf02563899</title>
<path fill="none" stroke="#7b8894" d="M457.5,-646.38C457.5,-763.19 457.5,-962.55 457.5,-962.55 457.5,-962.55 753.85,-962.55 753.85,-962.55"/>
<polygon fill="#7b8894" stroke="#7b8894" points="753.85,-966.05 763.85,-962.55 753.85,-959.05 753.85,-966.05"/>
<text xml:space="preserve" text-anchor="middle" x="635.9" y="-865.9" font-family="Sans-Serif" font-size="13.00" fill="#2d3436">HTTPS via Private Endpoint</text>
</g>
<!-- f4fbc76a7b4d49f2b445edb609facb29&#45;&gt;0cc14b5b4bff45c58ffbb71da746ef97 -->
<g id="edge31" class="edge">
<title>f4fbc76a7b4d49f2b445edb609facb29&#45;&gt;0cc14b5b4bff45c58ffbb71da746ef97</title>
<path fill="none" stroke="#7b8894" d="M524.65,-563.08C548.76,-563.08 572.5,-563.08 572.5,-563.08 572.5,-563.08 572.5,-1538.75 572.5,-1538.75 572.5,-1538.75 753.66,-1538.75 753.66,-1538.75"/>
<polygon fill="#7b8894" stroke="#7b8894" points="753.66,-1542.25 763.66,-1538.75 753.66,-1535.25 753.66,-1542.25"/>
<text xml:space="preserve" text-anchor="middle" x="635.9" y="-1350.9" font-family="Sans-Serif" font-size="13.00" fill="#2d3436">VNet Swift Integration</text>
</g>
<!-- e15a02f97d454708a24286f8b75b3ef9 -->
<g id="node18" class="node">
<title>e15a02f97d454708a24286f8b75b3ef9</title>
<image xlink:href="/Library/Frameworks/Python.framework/Versions/3.13/lib/python3.13/site-packages/resources/azure/storage/storage-accounts.png" width="100.8px" height="100.8px" preserveAspectRatio="xMinYMin meet" x="1040.9" y="-640.15"/>
<text xml:space="preserve" text-anchor="middle" x="1091.3" y="-522.5" font-family="Sans-Serif" font-size="13.00" fill="#2d3436">Storage Account (sa&#45;&lt;name&gt;)</text>
</g>
<!-- f4fbc76a7b4d49f2b445edb609facb29&#45;&gt;e15a02f97d454708a24286f8b75b3ef9 -->
<g id="edge27" class="edge">
<title>f4fbc76a7b4d49f2b445edb609facb29&#45;&gt;e15a02f97d454708a24286f8b75b3ef9</title>
<path fill="none" stroke="#7b8894" d="M524.71,-604.82C524.71,-604.82 1029.42,-604.82 1029.42,-604.82"/>
<polygon fill="#7b8894" stroke="#7b8894" points="1029.42,-608.32 1039.42,-604.82 1029.42,-601.32 1029.42,-608.32"/>
<text xml:space="preserve" text-anchor="middle" x="815.53" y="-590.9" font-family="Sans-Serif" font-size="13.00" fill="#2d3436">AzureWebJobsStorage</text>
</g>
<!-- f4fbc76a7b4d49f2b445edb609facb29&#45;&gt;15d7cd24240f42e5994523869577ee5c -->
<g id="edge35" class="edge">
<title>f4fbc76a7b4d49f2b445edb609facb29&#45;&gt;15d7cd24240f42e5994523869577ee5c</title>
<path fill="none" stroke="#7b8894" d="M474.5,-646.2C474.5,-732.92 474.5,-856.95 474.5,-856.95 474.5,-856.95 1262.3,-856.95 1262.3,-856.95"/>
<polygon fill="#7b8894" stroke="#7b8894" points="1262.3,-860.45 1272.3,-856.95 1262.3,-853.45 1262.3,-860.45"/>
<text xml:space="preserve" text-anchor="middle" x="962.53" y="-837.9" font-family="Sans-Serif" font-size="13.00" fill="#2d3436">diag_functionapp</text>
</g>
<!-- f4fbc76a7b4d49f2b445edb609facb29&#45;&gt;15d7cd24240f42e5994523869577ee5c -->
<g id="edge38" class="edge">
<title>f4fbc76a7b4d49f2b445edb609facb29&#45;&gt;15d7cd24240f42e5994523869577ee5c</title>
<path fill="none" stroke="#7b8894" d="M491.5,-646.27C491.5,-728.48 491.5,-842.55 491.5,-842.55 491.5,-842.55 1262.38,-842.55 1262.38,-842.55"/>
<polygon fill="#7b8894" stroke="#7b8894" points="1262.38,-846.05 1272.38,-842.55 1262.38,-839.05 1262.38,-846.05"/>
</g>
<!-- f4fbc76a7b4d49f2b445edb609facb29&#45;&gt;2bb839dc56994de793847ee97f549403 -->
<g id="edge37" class="edge">
<title>f4fbc76a7b4d49f2b445edb609facb29&#45;&gt;2bb839dc56994de793847ee97f549403</title>
<path fill="none" stroke="#7b8894" d="M440.5,-646.46C440.5,-776.28 440.5,-1013.25 440.5,-1013.25 440.5,-1013.25 1262.23,-1013.25 1262.23,-1013.25"/>
<polygon fill="#7b8894" stroke="#7b8894" points="1262.23,-1016.75 1272.23,-1013.25 1262.23,-1009.75 1262.23,-1016.75"/>
<text xml:space="preserve" text-anchor="middle" x="962.53" y="-1128.9" font-family="Sans-Serif" font-size="13.00" fill="#2d3436">AppInsights</text>
</g>
<!-- 649a83975a5349da88fe288fb8074e10 -->
<g id="node5" class="node">
<title>649a83975a5349da88fe288fb8074e10</title>
<image xlink:href="/Library/Frameworks/Python.framework/Versions/3.13/lib/python3.13/site-packages/resources/azure/network/subnets.png" width="100.8px" height="100.8px" preserveAspectRatio="xMinYMin meet" x="424.1" y="-1137.15"/>
<text xml:space="preserve" text-anchor="middle" x="474.5" y="-1019.5" font-family="Sans-Serif" font-size="13.00" fill="#2d3436">Subnet: PULSE&#45;private&#45;endpoints&#45;subnet</text>
</g>
<!-- 649a83975a5349da88fe288fb8074e10&#45;&gt;2afd761810f140c49245fbbf02563899 -->
<g id="edge6" class="edge">
<title>649a83975a5349da88fe288fb8074e10&#45;&gt;2afd761810f140c49245fbbf02563899</title>
<path fill="none" stroke="#7b8894" d="M524.82,-1034.85C619.67,-1034.85 815.5,-1034.85 815.5,-1034.85 815.5,-1034.85 815.5,-1023.23 815.5,-1008.11"/>
<text xml:space="preserve" text-anchor="middle" x="635.9" y="-1056.9" font-family="Sans-Serif" font-size="13.00" fill="#2d3436">hosts</text>
</g>
<!-- 649a83975a5349da88fe288fb8074e10&#45;&gt;0fbbca6a782a411d9645ac0cca957fa2 -->
<g id="edge7" class="edge">
<title>649a83975a5349da88fe288fb8074e10&#45;&gt;0fbbca6a782a411d9645ac0cca957fa2</title>
<path fill="none" stroke="#7b8894" d="M508.5,-1018.6C508.5,-922.76 508.5,-759.75 508.5,-759.75 508.5,-759.75 678.07,-759.75 765.17,-759.75"/>
<text xml:space="preserve" text-anchor="middle" x="635.9" y="-992.9" font-family="Sans-Serif" font-size="13.00" fill="#2d3436">hosts</text>
</g>
<!-- 649a83975a5349da88fe288fb8074e10&#45;&gt;55420940532b4ad1ba88226dc1b8d691 -->
<g id="edge8" class="edge">
<title>649a83975a5349da88fe288fb8074e10&#45;&gt;55420940532b4ad1ba88226dc1b8d691</title>
<path fill="none" stroke="#7b8894" d="M524.82,-1120.55C589.39,-1120.55 700.74,-1120.55 765.28,-1120.55"/>
<text xml:space="preserve" text-anchor="middle" x="635.9" y="-1119.9" font-family="Sans-Serif" font-size="13.00" fill="#2d3436">hosts</text>
</g>
<!-- fa4705f0ba4c4cf0864988319905883f -->
<g id="node13" class="node">
<title>fa4705f0ba4c4cf0864988319905883f</title>
<image xlink:href="/Library/Frameworks/Python.framework/Versions/3.13/lib/python3.13/site-packages/resources/azure/ml/azure-open-ai.png" width="100.8px" height="100.8px" preserveAspectRatio="xMinYMin meet" x="1040.9" y="-1313.15"/>
<text xml:space="preserve" text-anchor="middle" x="1091.3" y="-1195.5" font-family="Sans-Serif" font-size="13.00" fill="#2d3436">Cognitive Account (cog&#45;PULSE&#45;training&#45;&lt;env&gt;)</text>
</g>
<!-- 2afd761810f140c49245fbbf02563899&#45;&gt;fa4705f0ba4c4cf0864988319905883f -->
<g id="edge24" class="edge">
<title>2afd761810f140c49245fbbf02563899&#45;&gt;fa4705f0ba4c4cf0864988319905883f</title>
<path fill="none" stroke="#7b8894" d="M865.71,-988.22C938.95,-988.22 1066.5,-988.22 1066.5,-988.22 1066.5,-988.22 1066.5,-1183.02 1066.5,-1183.02"/>
<polygon fill="#7b8894" stroke="#7b8894" points="1063,-1183.02 1066.5,-1193.02 1070,-1183.02 1063,-1183.02"/>
<text xml:space="preserve" text-anchor="middle" x="962.53" y="-1215.9" font-family="Sans-Serif" font-size="13.00" fill="#2d3436">account</text>
</g>
<!-- 0fbbca6a782a411d9645ac0cca957fa2&#45;&gt;e15a02f97d454708a24286f8b75b3ef9 -->
<g id="edge26" class="edge">
<title>0fbbca6a782a411d9645ac0cca957fa2&#45;&gt;e15a02f97d454708a24286f8b75b3ef9</title>
<path fill="none" stroke="#7b8894" d="M832.5,-691.43C832.5,-670.25 832.5,-652.35 832.5,-652.35 832.5,-652.35 1029.58,-652.35 1029.58,-652.35"/>
<polygon fill="#7b8894" stroke="#7b8894" points="1029.58,-655.85 1039.58,-652.35 1029.58,-648.85 1029.58,-655.85"/>
<text xml:space="preserve" text-anchor="middle" x="962.53" y="-745.9" font-family="Sans-Serif" font-size="13.00" fill="#2d3436">blob</text>
</g>
<!-- 3afb40adb6b84d73a6e716e4e0a5101f -->
<g id="node12" class="node">
<title>3afb40adb6b84d73a6e716e4e0a5101f</title>
<image xlink:href="/Library/Frameworks/Python.framework/Versions/3.13/lib/python3.13/site-packages/resources/azure/network/dns-private-zones.png" width="100.8px" height="100.8px" preserveAspectRatio="xMinYMin meet" x="424.1" y="-1412.15"/>
<text xml:space="preserve" text-anchor="middle" x="474.5" y="-1294.5" font-family="Sans-Serif" font-size="13.00" fill="#2d3436">Zone: privatelink.azurewebsites.net (optional)</text>
</g>
<!-- 55420940532b4ad1ba88226dc1b8d691&#45;&gt;3afb40adb6b84d73a6e716e4e0a5101f -->
<g id="edge29" class="edge">
<title>55420940532b4ad1ba88226dc1b8d691&#45;&gt;3afb40adb6b84d73a6e716e4e0a5101f</title>
<path fill="none" stroke="#7b8894" d="M765.25,-1171.65C674.24,-1171.65 491.5,-1171.65 491.5,-1171.65 491.5,-1171.65 491.5,-1281.87 491.5,-1281.87"/>
<polygon fill="#7b8894" stroke="#7b8894" points="488,-1281.87 491.5,-1291.87 495,-1281.87 488,-1281.87"/>
<text xml:space="preserve" text-anchor="middle" x="635.9" y="-1412.9" font-family="Sans-Serif" font-size="13.00" fill="#2d3436">DNS zone group</text>
</g>
<!-- 0cc14b5b4bff45c58ffbb71da746ef97&#45;&gt;95ec82aab1e34d6b990cd6c549e606b1 -->
<g id="edge9" class="edge">
<title>0cc14b5b4bff45c58ffbb71da746ef97&#45;&gt;95ec82aab1e34d6b990cd6c549e606b1</title>
<path fill="none" stroke="#7b8894" d="M815.5,-1467.67C815.5,-1386.12 815.5,-1260.35 815.5,-1260.35 815.5,-1260.35 82.5,-1260.35 82.5,-1260.35 82.5,-1260.35 82.5,-799.47 82.5,-622.14"/>
<text xml:space="preserve" text-anchor="middle" x="371.98" y="-1822.9" font-family="Sans-Serif" font-size="13.00" fill="#2d3436">contains</text>
</g>
<!-- 0cc14b5b4bff45c58ffbb71da746ef97&#45;&gt;649a83975a5349da88fe288fb8074e10 -->
<g id="edge10" class="edge">
<title>0cc14b5b4bff45c58ffbb71da746ef97&#45;&gt;649a83975a5349da88fe288fb8074e10</title>
<path fill="none" stroke="#7b8894" d="M840.5,-1467.69C840.5,-1376.87 840.5,-1227.35 840.5,-1227.35 840.5,-1227.35 457.5,-1227.35 457.5,-1227.35 457.5,-1227.35 457.5,-1190.81 457.5,-1154.99"/>
<text xml:space="preserve" text-anchor="middle" x="635.9" y="-1474.9" font-family="Sans-Serif" font-size="13.00" fill="#2d3436">contains</text>
</g>
<!-- 7b68c1c4e6f04f87b52869393ecbe279 -->
<g id="node10" class="node">
<title>7b68c1c4e6f04f87b52869393ecbe279</title>
<image xlink:href="/Library/Frameworks/Python.framework/Versions/3.13/lib/python3.13/site-packages/resources/azure/network/dns-private-zones.png" width="100.8px" height="100.8px" preserveAspectRatio="xMinYMin meet" x="424.1" y="-1592.15"/>
<text xml:space="preserve" text-anchor="middle" x="474.5" y="-1474.5" font-family="Sans-Serif" font-size="13.00" fill="#2d3436">Zone: privatelink.openai.azure.com</text>
</g>
<!-- 7b68c1c4e6f04f87b52869393ecbe279&#45;&gt;0cc14b5b4bff45c58ffbb71da746ef97 -->
<g id="edge11" class="edge">
<title>7b68c1c4e6f04f87b52869393ecbe279&#45;&gt;0cc14b5b4bff45c58ffbb71da746ef97</title>
<path fill="none" stroke="#7b8894" d="M524.82,-1571.45C589.39,-1571.45 700.74,-1571.45 765.28,-1571.45"/>
<text xml:space="preserve" text-anchor="middle" x="635.9" y="-1598.9" font-family="Sans-Serif" font-size="13.00" fill="#2d3436">vnet link</text>
</g>
<!-- d1d91a60cc9f46d89ca78c99a5092e69 -->
<g id="node11" class="node">
<title>d1d91a60cc9f46d89ca78c99a5092e69</title>
<image xlink:href="/Library/Frameworks/Python.framework/Versions/3.13/lib/python3.13/site-packages/resources/azure/network/dns-private-zones.png" width="100.8px" height="100.8px" preserveAspectRatio="xMinYMin meet" x="424.1" y="-1772.15"/>
<text xml:space="preserve" text-anchor="middle" x="474.5" y="-1654.5" font-family="Sans-Serif" font-size="13.00" fill="#2d3436">Zone: privatelink.blob.core.windows.net</text>
</g>
<!-- d1d91a60cc9f46d89ca78c99a5092e69&#45;&gt;0cc14b5b4bff45c58ffbb71da746ef97 -->
<g id="edge12" class="edge">
<title>d1d91a60cc9f46d89ca78c99a5092e69&#45;&gt;0cc14b5b4bff45c58ffbb71da746ef97</title>
<path fill="none" stroke="#7b8894" d="M524.82,-1661.35C619.67,-1661.35 815.5,-1661.35 815.5,-1661.35 815.5,-1661.35 815.5,-1633.52 815.5,-1604.06"/>
<text xml:space="preserve" text-anchor="middle" x="635.9" y="-1691.9" font-family="Sans-Serif" font-size="13.00" fill="#2d3436">vnet link</text>
</g>
<!-- 3afb40adb6b84d73a6e716e4e0a5101f&#45;&gt;0cc14b5b4bff45c58ffbb71da746ef97 -->
<g id="edge13" class="edge">
<title>3afb40adb6b84d73a6e716e4e0a5101f&#45;&gt;0cc14b5b4bff45c58ffbb71da746ef97</title>
<path fill="none" stroke="#7b8894" d="M524.57,-1380.65C613.67,-1380.65 790.5,-1380.65 790.5,-1380.65 790.5,-1380.65 790.5,-1426.05 790.5,-1467.72"/>
<text xml:space="preserve" text-anchor="middle" x="635.9" y="-1536.9" font-family="Sans-Serif" font-size="13.00" fill="#2d3436">vnet link (optional)</text>
</g>
<!-- 598407e134a1415d99431cbb2f30d229 -->
<g id="node14" class="node">
<title>598407e134a1415d99431cbb2f30d229</title>
<image xlink:href="/Library/Frameworks/Python.framework/Versions/3.13/lib/python3.13/site-packages/resources/azure/ml/azure-open-ai.png" width="100.8px" height="100.8px" preserveAspectRatio="xMinYMin meet" x="1273.7" y="-1788.15"/>
<text xml:space="preserve" text-anchor="middle" x="1324.1" y="-1670.5" font-family="Sans-Serif" font-size="13.00" fill="#2d3436">Deployment: Persona&#45;Core&#45;Chat</text>
</g>
<!-- fa4705f0ba4c4cf0864988319905883f&#45;&gt;598407e134a1415d99431cbb2f30d229 -->
<g id="edge14" class="edge">
<title>fa4705f0ba4c4cf0864988319905883f&#45;&gt;598407e134a1415d99431cbb2f30d229</title>
<path fill="none" stroke="#7b8894" d="M1074.5,-1330.91C1074.5,-1460.52 1074.5,-1729.75 1074.5,-1729.75 1074.5,-1729.75 1262.38,-1729.75 1262.38,-1729.75"/>
<polygon fill="#7b8894" stroke="#7b8894" points="1262.38,-1733.25 1272.38,-1729.75 1262.38,-1726.25 1262.38,-1733.25"/>
</g>
<!-- a5d01bc7a2f346998cbba64101e6945d -->
<g id="node15" class="node">
<title>a5d01bc7a2f346998cbba64101e6945d</title>
<image xlink:href="/Library/Frameworks/Python.framework/Versions/3.13/lib/python3.13/site-packages/resources/azure/ml/azure-open-ai.png" width="100.8px" height="100.8px" preserveAspectRatio="xMinYMin meet" x="1273.7" y="-1248.15"/>
<text xml:space="preserve" text-anchor="middle" x="1324.1" y="-1130.5" font-family="Sans-Serif" font-size="13.00" fill="#2d3436">Deployment: Persona&#45;High&#45;Reasoning</text>
</g>
<!-- fa4705f0ba4c4cf0864988319905883f&#45;&gt;a5d01bc7a2f346998cbba64101e6945d -->
<g id="edge15" class="edge">
<title>fa4705f0ba4c4cf0864988319905883f&#45;&gt;a5d01bc7a2f346998cbba64101e6945d</title>
<path fill="none" stroke="#7b8894" d="M1141.53,-1230.25C1141.53,-1230.25 1262.45,-1230.25 1262.45,-1230.25"/>
<polygon fill="#7b8894" stroke="#7b8894" points="1262.45,-1233.75 1272.45,-1230.25 1262.45,-1226.75 1262.45,-1233.75"/>
</g>
<!-- 192b8875f49d47cebb61ed9dd931beee -->
<g id="node16" class="node">
<title>192b8875f49d47cebb61ed9dd931beee</title>
<image xlink:href="/Library/Frameworks/Python.framework/Versions/3.13/lib/python3.13/site-packages/resources/azure/ml/azure-open-ai.png" width="100.8px" height="100.8px" preserveAspectRatio="xMinYMin meet" x="1273.7" y="-1428.15"/>
<text xml:space="preserve" text-anchor="middle" x="1324.1" y="-1310.5" font-family="Sans-Serif" font-size="13.00" fill="#2d3436">Deployment: PULSE&#45;Audio&#45;Realtime</text>
</g>
<!-- fa4705f0ba4c4cf0864988319905883f&#45;&gt;192b8875f49d47cebb61ed9dd931beee -->
<g id="edge16" class="edge">
<title>fa4705f0ba4c4cf0864988319905883f&#45;&gt;192b8875f49d47cebb61ed9dd931beee</title>
<path fill="none" stroke="#7b8894" d="M1141.53,-1320.25C1141.53,-1320.25 1262.45,-1320.25 1262.45,-1320.25"/>
<polygon fill="#7b8894" stroke="#7b8894" points="1262.45,-1323.75 1272.45,-1320.25 1262.45,-1316.75 1262.45,-1323.75"/>
</g>
<!-- 7846734bfa4f434186b3aa07900e4953 -->
<g id="node17" class="node">
<title>7846734bfa4f434186b3aa07900e4953</title>
<image xlink:href="/Library/Frameworks/Python.framework/Versions/3.13/lib/python3.13/site-packages/resources/azure/ml/azure-open-ai.png" width="100.8px" height="100.8px" preserveAspectRatio="xMinYMin meet" x="1273.7" y="-1608.15"/>
<text xml:space="preserve" text-anchor="middle" x="1324.1" y="-1490.5" font-family="Sans-Serif" font-size="13.00" fill="#2d3436">Deployment: Persona&#45;Visual&#45;Asset</text>
</g>
<!-- fa4705f0ba4c4cf0864988319905883f&#45;&gt;7846734bfa4f434186b3aa07900e4953 -->
<g id="edge17" class="edge">
<title>fa4705f0ba4c4cf0864988319905883f&#45;&gt;7846734bfa4f434186b3aa07900e4953</title>
<path fill="none" stroke="#7b8894" d="M1108.5,-1331.14C1108.5,-1415.17 1108.5,-1546.75 1108.5,-1546.75 1108.5,-1546.75 1262.31,-1546.75 1262.31,-1546.75"/>
<polygon fill="#7b8894" stroke="#7b8894" points="1262.31,-1550.25 1272.31,-1546.75 1262.31,-1543.25 1262.31,-1550.25"/>
</g>
<!-- fa4705f0ba4c4cf0864988319905883f&#45;&gt;15d7cd24240f42e5994523869577ee5c -->
<g id="edge32" class="edge">
<title>fa4705f0ba4c4cf0864988319905883f&#45;&gt;15d7cd24240f42e5994523869577ee5c</title>
<path fill="none" stroke="#7b8894" d="M1091.5,-1194.5C1091.5,-1086.48 1091.5,-888.25 1091.5,-888.25 1091.5,-888.25 1262.4,-888.25 1262.4,-888.25"/>
<polygon fill="#7b8894" stroke="#7b8894" points="1262.4,-891.75 1272.4,-888.25 1262.4,-884.75 1262.4,-891.75"/>
<text xml:space="preserve" text-anchor="middle" x="1207.7" y="-1080.9" font-family="Sans-Serif" font-size="13.00" fill="#2d3436">diag_openai</text>
</g>
<!-- 45746811000b49918abbc93088013613 -->
<g id="node19" class="node">
<title>45746811000b49918abbc93088013613</title>
<image xlink:href="/Library/Frameworks/Python.framework/Versions/3.13/lib/python3.13/site-packages/resources/azure/storage/storage-accounts.png" width="100.8px" height="100.8px" preserveAspectRatio="xMinYMin meet" x="1273.7" y="-706.15"/>
<text xml:space="preserve" text-anchor="middle" x="1324.1" y="-588.5" font-family="Sans-Serif" font-size="13.00" fill="#2d3436">Container: certification&#45;materials</text>
</g>
<!-- e15a02f97d454708a24286f8b75b3ef9&#45;&gt;45746811000b49918abbc93088013613 -->
<g id="edge18" class="edge">
<title>e15a02f97d454708a24286f8b75b3ef9&#45;&gt;45746811000b49918abbc93088013613</title>
<path fill="none" stroke="#7b8894" d="M1141.53,-622.75C1141.53,-622.75 1262.45,-622.75 1262.45,-622.75"/>
<polygon fill="#7b8894" stroke="#7b8894" points="1262.45,-626.25 1272.45,-622.75 1262.45,-619.25 1262.45,-626.25"/>
</g>
<!-- 8f57e6c08b0f4deb80a806e5ed004bd8 -->
<g id="node20" class="node">
<title>8f57e6c08b0f4deb80a806e5ed004bd8</title>
<image xlink:href="/Library/Frameworks/Python.framework/Versions/3.13/lib/python3.13/site-packages/resources/azure/storage/storage-accounts.png" width="100.8px" height="100.8px" preserveAspectRatio="xMinYMin meet" x="1273.7" y="-166.15"/>
<text xml:space="preserve" text-anchor="middle" x="1324.1" y="-48.5" font-family="Sans-Serif" font-size="13.00" fill="#2d3436">Container: interaction&#45;logs</text>
</g>
<!-- e15a02f97d454708a24286f8b75b3ef9&#45;&gt;8f57e6c08b0f4deb80a806e5ed004bd8 -->
<g id="edge19" class="edge">
<title>e15a02f97d454708a24286f8b75b3ef9&#45;&gt;8f57e6c08b0f4deb80a806e5ed004bd8</title>
<path fill="none" stroke="#7b8894" d="M1074.5,-521.59C1074.5,-390.42 1074.5,-115.75 1074.5,-115.75 1074.5,-115.75 1262.38,-115.75 1262.38,-115.75"/>
<polygon fill="#7b8894" stroke="#7b8894" points="1262.38,-119.25 1272.38,-115.75 1262.38,-112.25 1262.38,-119.25"/>
</g>
<!-- 2c3fab15ea22413e9aaa70bdf778dba3 -->
<g id="node21" class="node">
<title>2c3fab15ea22413e9aaa70bdf778dba3</title>
<image xlink:href="/Library/Frameworks/Python.framework/Versions/3.13/lib/python3.13/site-packages/resources/azure/storage/storage-accounts.png" width="100.8px" height="100.8px" preserveAspectRatio="xMinYMin meet" x="1273.7" y="-346.15"/>
<text xml:space="preserve" text-anchor="middle" x="1324.1" y="-228.5" font-family="Sans-Serif" font-size="13.00" fill="#2d3436">Container: prompts</text>
</g>
<!-- e15a02f97d454708a24286f8b75b3ef9&#45;&gt;2c3fab15ea22413e9aaa70bdf778dba3 -->
<g id="edge20" class="edge">
<title>e15a02f97d454708a24286f8b75b3ef9&#45;&gt;2c3fab15ea22413e9aaa70bdf778dba3</title>
<path fill="none" stroke="#7b8894" d="M1108.5,-521.55C1108.5,-445.42 1108.5,-332.75 1108.5,-332.75 1108.5,-332.75 1262.31,-332.75 1262.31,-332.75"/>
<polygon fill="#7b8894" stroke="#7b8894" points="1262.31,-336.25 1272.31,-332.75 1262.31,-329.25 1262.31,-336.25"/>
</g>
<!-- c5bd7477dba044f9a76df1ddc998aafb -->
<g id="node22" class="node">
<title>c5bd7477dba044f9a76df1ddc998aafb</title>
<image xlink:href="/Library/Frameworks/Python.framework/Versions/3.13/lib/python3.13/site-packages/resources/azure/storage/storage-accounts.png" width="100.8px" height="100.8px" preserveAspectRatio="xMinYMin meet" x="1273.7" y="-526.15"/>
<text xml:space="preserve" text-anchor="middle" x="1324.1" y="-408.5" font-family="Sans-Serif" font-size="13.00" fill="#2d3436">Container: trainer&#45;change&#45;logs</text>
</g>
<!-- e15a02f97d454708a24286f8b75b3ef9&#45;&gt;c5bd7477dba044f9a76df1ddc998aafb -->
<g id="edge21" class="edge">
<title>e15a02f97d454708a24286f8b75b3ef9&#45;&gt;c5bd7477dba044f9a76df1ddc998aafb</title>
<path fill="none" stroke="#7b8894" d="M1141.53,-532.75C1141.53,-532.75 1262.45,-532.75 1262.45,-532.75"/>
<polygon fill="#7b8894" stroke="#7b8894" points="1262.45,-536.25 1272.45,-532.75 1262.45,-529.25 1262.45,-536.25"/>
</g>
<!-- e15a02f97d454708a24286f8b75b3ef9&#45;&gt;15d7cd24240f42e5994523869577ee5c -->
<g id="edge33" class="edge">
<title>e15a02f97d454708a24286f8b75b3ef9&#45;&gt;15d7cd24240f42e5994523869577ee5c</title>
<path fill="none" stroke="#7b8894" d="M1116.5,-657.98C1116.5,-722.08 1116.5,-808.22 1116.5,-808.22 1116.5,-808.22 1262.33,-808.22 1262.33,-808.22"/>
<polygon fill="#7b8894" stroke="#7b8894" points="1262.33,-811.72 1272.33,-808.22 1262.33,-804.72 1262.33,-811.72"/>
<text xml:space="preserve" text-anchor="middle" x="1207.7" y="-716.9" font-family="Sans-Serif" font-size="13.00" fill="#2d3436">diag_storage</text>
</g>
</g>
</svg>
